<svg xmlns="http://www.w3.org/2000/svg" xmlns:xlink="http://www.w3.org/1999/xlink" width="44" height="44" fill="none"><style>.B{fill:#fff}.C{fill:#000}.D{color-interpolation-filters:sRGB}.E{flood-opacity:0}</style><mask id="A" maskUnits="userSpaceOnUse" x="0" y="0" width="44" height="44"><path d="M22 44C9.85 44 0 34.15 0 22S9.85 0 22 0s22 9.85 22 22-9.85 22-22 22z" class="B"/></mask><g mask="url(#A)"><path opacity=".922" fill-rule="evenodd" d="M-.78-.78h45.56v45.56H-.78V-.78z" fill="url(#K)"/><mask id="B" maskUnits="userSpaceOnUse" x="12" y="14" width="10" height="9"><use xlink:href="#L" class="B"/></mask><g mask="url(#B)"><g filter="url(#E)" class="C"><use xlink:href="#L"/></g><use xlink:href="#L" class="B"/><g filter="url(#F)" class="C"><path d="M11.858 13.306h10.055v9.482H11.858v-9.482z"/></g><path d="M11.858 13.306h10.055v9.482H11.858v-9.482z" class="B"/></g><mask id="C" maskUnits="userSpaceOnUse" x="12" y="9" width="21" height="21"><use xlink:href="#M" class="B"/></mask><g mask="url(#C)"><g filter="url(#G)" class="C"><use xlink:href="#M"/></g><use xlink:href="#M" class="B"/><g filter="url(#H)" class="C"><path d="M11.857 8.27H33.36v22.425H11.857V8.27z"/></g><path d="M11.857 8.27H33.36v22.425H11.857V8.27z" class="B"/></g><mask id="D" maskUnits="userSpaceOnUse" x="19" y="19" width="15" height="16"><use xlink:href="#N" class="B"/></mask><g mask="url(#D)"><g filter="url(#I)" class="C"><use xlink:href="#N"/></g><use xlink:href="#N" class="B"/><g filter="url(#J)" class="C"><path d="M19.22 18.7h14.857v17.03H19.22V18.7z"/></g><path d="M19.22 18.7h14.857v17.03H19.22V18.7z" class="B"/></g></g><defs><filter id="E" x="10.638" y="12.086" width="16.495" height="15.923" filterUnits="userSpaceOnUse" class="D"><feFlood result="A" class="E"/><feColorMatrix in="SourceAlpha" values="0 0 0 0 0 0 0 0 0 0 0 0 0 0 0 0 0 0 127 0"/><feOffset dx="2" dy="2"/><feGaussianBlur stdDeviation="2"/><feColorMatrix values="0 0 0 0 0.326952 0 0 0 0 0.372942 0 0 0 0 0.638659 0 0 0 0.414798 0"/><feBlend in2="A"/><feBlend in="SourceGraphic"/></filter><filter id="F" x="9.858" y="11.306" width="18.056" height="17.482" filterUnits="userSpaceOnUse" class="D"><feFlood result="A" class="E"/><feColorMatrix in="SourceAlpha" values="0 0 0 0 0 0 0 0 0 0 0 0 0 0 0 0 0 0 127 0"/><feOffset dx="2" dy="2"/><feGaussianBlur stdDeviation="2"/><feColorMatrix values="0 0 0 0 0.326952 0 0 0 0 0.372942 0 0 0 0 0.638659 0 0 0 0.414798 0"/><feBlend in2="A"/><feBlend in="SourceGraphic"/></filter><filter id="G" x="10.638" y="7.049" width="27.942" height="28.865" filterUnits="userSpaceOnUse" class="D"><feFlood result="A" class="E"/><feColorMatrix in="SourceAlpha" values="0 0 0 0 0 0 0 0 0 0 0 0 0 0 0 0 0 0 127 0"/><feOffset dx="2" dy="2"/><feGaussianBlur stdDeviation="2"/><feColorMatrix values="0 0 0 0 0.326952 0 0 0 0 0.372942 0 0 0 0 0.638659 0 0 0 0.414798 0"/><feBlend in2="A"/><feBlend in="SourceGraphic"/></filter><filter id="H" x="9.857" y="6.269" width="29.504" height="30.425" filterUnits="userSpaceOnUse" class="D"><feFlood result="A" class="E"/><feColorMatrix in="SourceAlpha" values="0 0 0 0 0 0 0 0 0 0 0 0 0 0 0 0 0 0 127 0"/><feOffset dx="2" dy="2"/><feGaussianBlur stdDeviation="2"/><feColorMatrix values="0 0 0 0 0.326952 0 0 0 0 0.372942 0 0 0 0 0.638659 0 0 0 0.414798 0"/><feBlend in2="A"/><feBlend in="SourceGraphic"/></filter><filter id="I" x="18" y="17.482" width="21.298" height="23.468" filterUnits="userSpaceOnUse" class="D"><feFlood result="A" class="E"/><feColorMatrix in="SourceAlpha" values="0 0 0 0 0 0 0 0 0 0 0 0 0 0 0 0 0 0 127 0"/><feOffset dx="2" dy="2"/><feGaussianBlur stdDeviation="2"/><feColorMatrix values="0 0 0 0 0.326952 0 0 0 0 0.372942 0 0 0 0 0.638659 0 0 0 0.414798 0"/><feBlend in2="A"/><feBlend in="SourceGraphic"/></filter><filter id="J" x="17.219" y="16.701" width="22.857" height="25.028" filterUnits="userSpaceOnUse" class="D"><feFlood result="A" class="E"/><feColorMatrix in="SourceAlpha" values="0 0 0 0 0 0 0 0 0 0 0 0 0 0 0 0 0 0 127 0"/><feOffset dx="2" dy="2"/><feGaussianBlur stdDeviation="2"/><feColorMatrix values="0 0 0 0 0.326952 0 0 0 0 0.372942 0 0 0 0 0.638659 0 0 0 0.414798 0"/><feBlend in2="A"/><feBlend in="SourceGraphic"/></filter><linearGradient id="K" x1=".02" y1="53.918" x2="30.859" y2="4.875" gradientUnits="userSpaceOnUse"><stop stop-color="#003b7e"/><stop offset=".998" stop-color="#3a96ff"/></linearGradient><path id="L" d="M12.638 14.086h4.66l3.835 5.035L18.7 22.01l-6.062-7.923z"/><path id="M" d="M28.638 9.05h3.942L16.877 29.914h-4.24l16-20.865z"/><path id="N" d="M20 23.864l1.452-4.382L33.298 34.95H28.34L20 23.864z"/></defs></svg>