<svg width="44" height="44" fill="none" xmlns="http://www.w3.org/2000/svg"><circle cx="22" cy="22" r="22" fill="#F0A967"/><path d="M16 23.6L23.2 10l-.8 10.4H28L20.8 34l.8-10.4H16z" fill="#fff"/><path fill-rule="evenodd" clip-rule="evenodd" d="M22.62 5.011A17.319 17.319 0 0 0 22 5C12.611 5 5 12.611 5 22s7.611 17 17 17 17-7.611 17-17c0-6.599-3.76-12.32-9.254-15.137L29.5 7l-1.2 1.384C33.438 10.764 37 15.966 37 22c0 8.284-6.716 15-15 15-8.284 0-15-6.716-15-15 0-8.284 6.716-15 15-15 .235 0 .468.005.7.016l-.08-2.005z" fill="#fff"/><path d="M30.5 13.5L29 7h6.5" stroke="#fff" stroke-width="2"/></svg>