<svg width="50" height="50" viewBox="0 0 50 50" xmlns="http://www.w3.org/2000/svg" xmlns:xlink="http://www.w3.org/1999/xlink"><defs><linearGradient x1="88.285%" y1="-24.942%" x2="37.949%" y2="96.203%" id="a"><stop stop-color="#B2C1FF" offset="0%"/><stop stop-color="#4E4DFC" offset="100%"/></linearGradient><path d="M39 30.699C39 33.075 37.106 35 34.768 35H16.232C13.894 35 12 33.075 12 30.699V19.3c0-2.375 1.894-4.3 4.232-4.3h18.536C37.106 15 39 16.925 39 19.301V30.7zm-25-.811c0 1.166.898 2.112 2.007 2.112h17.986C35.102 32 36 31.054 36 29.888V23H14v6.888zm20.02-11.849L16.036 18C14.927 18 14 18.706 14 20.02v.941L36 21v-.94c0-1.315-.871-2.021-1.98-2.021z" id="c"/><filter x="-24.1%" y="-32.5%" width="163%" height="185%" filterUnits="objectBoundingBox" id="b"><feOffset dx="2" dy="2" in="SourceAlpha" result="shadowOffsetOuter1"/><feGaussianBlur stdDeviation="2.5" in="shadowOffsetOuter1" result="shadowBlurOuter1"/><feColorMatrix values="0 0 0 0 0.326952172 0 0 0 0 0.372941644 0 0 0 0 0.638658588 0 0 0 0.41479846 0" in="shadowBlurOuter1"/></filter></defs><g fill="none" fill-rule="evenodd"><path d="M25 0C11.193 0 0 11.193 0 25s11.193 25 25 25 25-11.193 25-25S38.807 0 25 0z" fill="url(#a)"/><g fill-rule="nonzero"><use fill="#000" filter="url(#b)" xlink:href="#c"/><use fill="#FFF" fill-rule="evenodd" xlink:href="#c"/></g></g></svg>