<svg width="50" height="50" viewBox="0 0 50 50" xmlns="http://www.w3.org/2000/svg" xmlns:xlink="http://www.w3.org/1999/xlink"><defs><linearGradient x1="50%" y1="95.947%" x2="50%" y2="-68.64%" id="a"><stop stop-color="#31E8C5" offset=".12%"/><stop stop-color="#15A0FF" offset="100%"/></linearGradient><path d="M34.287 21.063c-.707 0-1.198.583-1.281 1.282-.5 4.2-2.738 5.35-4.884 6.015-.39.121-.988.392-.988.601v-4.25l.003-.081c0-.053-.003-.104-.003-.156V13.573c0-.708-.763-1.282-1.47-1.282-.708 0-1.47.573-1.47 1.282v7.371c0-.208-.667-.404-1.038-.599-2.46-1.288-4.97-2.45-4.97-6.785 0-.708-.556-1.282-1.264-1.282-.707 0-1.273.573-1.273 1.282 0 5.886 3.774 7.895 6.314 9.226 1.389.727 2.232 1.21 2.232 1.797v13.154c0 .707.762 1.282 1.47 1.282.707 0 1.47-.574 1.47-1.282v-4.322c0-.61.752-1.098 2.177-1.844 2.54-1.33 6.317-3.34 6.317-9.227 0-.706-.634-1.28-1.342-1.28z" id="c"/><filter x="-22.5%" y="-16.8%" width="175.1%" height="156.1%" filterUnits="objectBoundingBox" id="b"><feOffset dx="3" dy="3" in="SourceAlpha" result="shadowOffsetOuter1"/><feGaussianBlur stdDeviation="2" in="shadowOffsetOuter1" result="shadowBlurOuter1"/><feColorMatrix values="0 0 0 0 0.0631441971 0 0 0 0 0.295918367 0 0 0 0 0.0963524686 0 0 0 0.126217165 0" in="shadowBlurOuter1"/></filter></defs><g fill="none" fill-rule="evenodd"><circle fill="url(#a)" fill-rule="nonzero" cx="25" cy="25" r="25"/><use fill="#000" filter="url(#b)" xlink:href="#c"/><use fill="#FFF" xlink:href="#c"/></g></svg>