<svg width="150" height="176" viewBox="0 0 150 176" xmlns="http://www.w3.org/2000/svg" xmlns:xlink="http://www.w3.org/1999/xlink"><defs><path id="a" d="M0 0h200v200H0z"/><path id="c" d="M0 0h324v248H0z"/><linearGradient x1="78.01%" y1="80.599%" x2="21.234%" y2="31.228%" id="d"><stop stop-color="#FFF" offset="0%"/><stop stop-color="#FFF" offset="100%"/></linearGradient><linearGradient x1="75.242%" y1="37.777%" x2="19.051%" y2="31.489%" id="f"><stop stop-color="#1A4464" stop-opacity=".087" offset="0%"/><stop stop-color="#19394B" stop-opacity="0" offset="100%"/></linearGradient><filter x="-1.9%" y="-8.6%" width="103.7%" height="117.3%" filterUnits="objectBoundingBox" id="g"><feGaussianBlur stdDeviation=".812" in="SourceGraphic"/></filter><filter x="-1.3%" y="-6.2%" width="102.7%" height="112.3%" filterUnits="objectBoundingBox" id="h"><feGaussianBlur stdDeviation=".812" in="SourceGraphic"/></filter><linearGradient x1="76.823%" y1="38.152%" x2="8.267%" y2="21.879%" id="i"><stop stop-color="#0A1A25" stop-opacity=".118" offset="0%"/><stop stop-color="#FFF" stop-opacity="0" offset="100%"/></linearGradient><filter x="-1.5%" y="-5.3%" width="102.9%" height="110.7%" filterUnits="objectBoundingBox" id="j"><feGaussianBlur stdDeviation=".812" in="SourceGraphic"/></filter><linearGradient x1="117.723%" y1="-19.147%" x2="-175.785%" y2="248.239%" id="k"><stop stop-color="#FFF" offset="0%"/><stop stop-color="#C2DAFF" offset="23.859%"/><stop stop-color="#0065FF" offset="100%"/></linearGradient><linearGradient x1="133.004%" y1="50%" x2="34.853%" y2="50%" id="l"><stop stop-color="#FDFDFF" offset="0%"/><stop stop-color="#EEF0FF" offset="100%"/></linearGradient><linearGradient x1="26.023%" y1="97.549%" x2="16.461%" y2="67.923%" id="m"><stop stop-color="#FFF" offset="0%"/><stop stop-color="#009CC4" offset="30.977%"/><stop stop-color="#09769C" offset="100%"/></linearGradient><linearGradient x1="152.547%" y1="19.735%" x2="0%" y2="63.822%" id="n"><stop stop-color="#A4FCFF" offset="0%"/><stop stop-color="#02BAFC" offset="100%"/></linearGradient><linearGradient x1="46.71%" y1="40.4%" x2="26.766%" y2="88.309%" id="o"><stop stop-color="#026197" offset="0%"/><stop stop-color="#086998" offset="0%"/><stop stop-color="#6CE8AB" offset="100%"/></linearGradient><linearGradient x1="100%" y1="25.518%" x2="-26.878%" y2="110.111%" id="p"><stop stop-color="#0076B9" offset="0%"/><stop stop-color="#1FFF91" offset="100%"/></linearGradient><linearGradient x1="123.271%" y1="-36.464%" x2="45.542%" y2="76.845%" id="q"><stop stop-color="#FFF" offset="0%"/><stop stop-color="#0CF" offset="100%"/></linearGradient><linearGradient x1="46.029%" y1="-44.942%" x2="-3.678%" y2="63.927%" id="r"><stop stop-color="#0076B9" offset="0%"/><stop stop-color="#1FFF91" offset="100%"/></linearGradient><linearGradient x1="45.689%" y1="-38.859%" x2="14.624%" y2="58.886%" id="s"><stop stop-color="#0076B9" offset="0%"/><stop stop-color="#0489B3" offset="13.822%"/><stop stop-color="#1FFF91" offset="100%"/></linearGradient><linearGradient x1="30.12%" y1="106.273%" x2="0%" y2="40.961%" id="t"><stop stop-color="#FFF" offset="0%"/><stop stop-color="#009CC4" offset="11.045%"/><stop stop-color="#09769C" offset="100%"/></linearGradient><linearGradient x1="39.523%" y1="85.408%" x2="27.188%" y2="46.57%" id="u"><stop stop-color="#009CC4" offset="0%"/><stop stop-color="#09769C" offset="100%"/></linearGradient><linearGradient x1="81.832%" y1="-188.804%" x2="50%" y2="97.08%" id="v"><stop stop-color="#FFF" offset="0%"/><stop stop-color="#1FC5FF" offset="100%"/></linearGradient><linearGradient x1="100%" y1="0%" x2="18.957%" y2="93.91%" id="w"><stop stop-color="#FFF" offset="0%"/><stop stop-color="#DEE9E9" offset="100%"/></linearGradient><linearGradient x1="77.089%" y1="55.196%" x2="25.133%" y2="218.842%" id="x"><stop stop-color="#0D202F" stop-opacity=".362" offset="0%"/><stop stop-color="#112433" stop-opacity=".355" offset="9.524%"/><stop stop-color="#FFF" stop-opacity="0" offset="100%"/></linearGradient><filter x="-25.1%" y="-22.8%" width="150.2%" height="145.7%" filterUnits="objectBoundingBox" id="y"><feGaussianBlur stdDeviation=".812" in="SourceGraphic"/></filter><linearGradient x1="97.135%" y1="-2.304%" x2="-3.117%" y2="103.693%" id="z"><stop stop-color="#E3EBFE" offset="0%"/><stop stop-color="#3258FF" offset="100%"/></linearGradient><linearGradient x1="51.096%" y1="-27.788%" x2="49.437%" y2="88.776%" id="A"><stop stop-color="#FFF" offset="0%"/><stop stop-color="#4A5ABA" offset="99.88%"/></linearGradient><linearGradient x1="49.99%" y1="-202.187%" x2="49.99%" y2="-158.697%" id="B"><stop stop-color="#FFF" offset="0%"/><stop stop-color="#4A5ABA" offset="99.88%"/></linearGradient><linearGradient x1="49.718%" y1="-167.746%" x2="49.718%" y2="-117.124%" id="C"><stop stop-color="#FFF" offset="0%"/><stop stop-color="#4A5ABA" offset="99.88%"/></linearGradient><linearGradient x1="50%" y1="73.903%" x2="50%" y2="-10.827%" id="D"><stop stop-color="#FFF" offset="0%"/><stop stop-color="#2D9AC0" offset="100%"/></linearGradient><linearGradient x1="46.71%" y1="40.4%" x2="41.593%" y2="55.032%" id="E"><stop stop-color="#026197" offset="0%"/><stop stop-color="#086998" offset="0%"/><stop stop-color="#6CE8AB" offset="100%"/></linearGradient><linearGradient x1="46.71%" y1="40.4%" x2="39.782%" y2="62.265%" id="F"><stop stop-color="#026197" offset="0%"/><stop stop-color="#086998" offset="0%"/><stop stop-color="#6CE8AB" offset="100%"/></linearGradient><linearGradient x1="46.71%" y1="40.4%" x2="30.298%" y2="82.685%" id="G"><stop stop-color="#026197" offset="0%"/><stop stop-color="#086998" offset="0%"/><stop stop-color="#6CE8AB" offset="100%"/></linearGradient><linearGradient x1="99.208%" y1="54.635%" x2="7.682%" y2="60.507%" id="H"><stop stop-color="#5280E9" offset="0%"/><stop stop-color="#1844DC" offset="100%"/></linearGradient><filter x="-7.3%" y="-12.4%" width="114.6%" height="124.7%" filterUnits="objectBoundingBox" id="I"><feGaussianBlur stdDeviation="1.2" in="SourceGraphic"/></filter><linearGradient x1="8.964%" y1="30.946%" x2="20.566%" y2="100%" id="J"><stop stop-color="#08517A" offset="0%"/><stop stop-color="#6CE8AB" offset="100%"/></linearGradient><linearGradient x1="20.064%" y1="40.319%" x2="32.296%" y2="139.996%" id="K"><stop stop-color="#08517A" offset="0%"/><stop stop-color="#6CE8AB" offset="100%"/></linearGradient><linearGradient x1="3.451%" y1="59.542%" y2="40.091%" id="L"><stop stop-color="#FF6190" offset="0%"/><stop stop-color="#FFDA8C" offset="100%"/></linearGradient><linearGradient x1="84.659%" y1="21.193%" x2="0%" y2="96.962%" id="M"><stop stop-color="#22A4CE" offset="0%"/><stop stop-color="#6CE8AB" offset="100%"/></linearGradient><linearGradient x1="78.77%" y1="44.456%" x2="-57.167%" y2="62.779%" id="N"><stop stop-color="#FFF" offset="0%"/><stop stop-color="#0065FF" offset="100%"/></linearGradient><linearGradient x1="95.717%" y1="43.038%" x2="0%" y2="50%" id="O"><stop stop-color="#3AE4FF" offset="0%"/><stop stop-color="#0DABFF" offset="100%"/></linearGradient><linearGradient x1="101.938%" y1="0%" x2="45.328%" y2="116.279%" id="P"><stop stop-color="#FFF" offset="0%"/><stop stop-color="#0065FF" offset="100%"/></linearGradient><linearGradient x1="16.011%" y1="50.007%" x2="156.186%" y2="50.007%" id="Q"><stop stop-color="#00CFFF" offset="0%"/><stop stop-color="#03FF00" offset="100%"/></linearGradient><linearGradient x1="0%" y1="71.835%" y2="9.215%" id="R"><stop stop-color="#F7FBFF" stop-opacity=".011" offset="0%"/><stop stop-color="#EFF7FF" offset="100%"/></linearGradient><linearGradient x1="77.089%" y1="55.196%" x2="-35.412%" y2="-32.822%" id="S"><stop stop-color="#0D202F" stop-opacity=".362" offset="0%"/><stop stop-color="#112433" stop-opacity=".355" offset="21.529%"/><stop stop-color="#FFF" stop-opacity="0" offset="100%"/></linearGradient><filter x="-15.8%" y="-15%" width="131.5%" height="130%" filterUnits="objectBoundingBox" id="T"><feGaussianBlur stdDeviation=".4" in="SourceGraphic"/></filter><linearGradient x1="50%" y1="0%" x2="50%" y2="100%" id="U"><stop stop-color="#26F3BA" offset="0%"/><stop stop-color="#02CE6C" offset="100%"/></linearGradient><linearGradient x1="42.942%" y1="-82.869%" x2="57.401%" y2="190.325%" id="V"><stop stop-color="#FFF" offset="0%"/><stop stop-color="#647AFF" offset="96.747%"/></linearGradient><linearGradient x1="47.113%" y1="-4.067%" x2="67.903%" y2="154.664%" id="W"><stop stop-color="#FFF" offset="0%"/><stop stop-color="#596EEC" offset="100%"/></linearGradient><linearGradient x1="62.09%" y1="17.422%" x2="65.742%" y2="347.929%" id="X"><stop stop-color="#FFF" offset="0%"/><stop stop-color="#4A5ABA" offset="100%"/></linearGradient><filter x="-7.2%" y="-4.8%" width="114.4%" height="109.6%" filterUnits="objectBoundingBox" id="Y"><feGaussianBlur stdDeviation="1.2" in="SourceGraphic"/></filter><filter x="-2.8%" y="-4.5%" width="105.6%" height="108.9%" filterUnits="objectBoundingBox" id="Z"><feGaussianBlur stdDeviation="1.2" in="SourceGraphic"/></filter><linearGradient x1="70.801%" y1="64.451%" y2="157.444%" id="aa"><stop stop-color="#0D202F" stop-opacity=".096" offset="0%"/><stop stop-color="#112433" stop-opacity=".355" offset="0%"/><stop stop-color="#364653" stop-opacity=".3" offset="0%"/><stop stop-color="#2B3842" stop-opacity=".237" offset="0%"/><stop stop-color="#181F25" stop-opacity=".132" offset="44.183%"/><stop stop-opacity="0" offset="100%"/></linearGradient><filter x="0%" y="0%" width="100%" height="100%" filterUnits="objectBoundingBox" id="ab"><feGaussianBlur in="SourceGraphic"/></filter><filter x="0%" y="0%" width="100%" height="100%" filterUnits="objectBoundingBox" id="ac"><feGaussianBlur in="SourceGraphic"/></filter><filter x="0%" y="0%" width="100%" height="100%" filterUnits="objectBoundingBox" id="ad"><feGaussianBlur in="SourceGraphic"/></filter><filter x="0%" y="0%" width="100%" height="100%" filterUnits="objectBoundingBox" id="ae"><feGaussianBlur in="SourceGraphic"/></filter><linearGradient x1="64.411%" y1="38.953%" x2="70.852%" y2="173.538%" id="af"><stop stop-color="#0D202F" stop-opacity=".362" offset="0%"/><stop stop-color="#112433" stop-opacity=".355" offset="9.524%"/><stop stop-color="#FFF" stop-opacity="0" offset="100%"/></linearGradient><filter x="-13.9%" y="-14.4%" width="127.8%" height="128.7%" filterUnits="objectBoundingBox" id="ag"><feGaussianBlur stdDeviation=".812" in="SourceGraphic"/></filter><filter x="-25.1%" y="-25.6%" width="150.2%" height="151.3%" filterUnits="objectBoundingBox" id="ah"><feGaussianBlur stdDeviation=".812" in="SourceGraphic"/></filter><filter x="-25.1%" y="-25.6%" width="150.2%" height="151.3%" filterUnits="objectBoundingBox" id="ai"><feGaussianBlur stdDeviation=".812" in="SourceGraphic"/></filter></defs><g fill="none" fill-rule="evenodd"><mask id="b" fill="#fff"><use xlink:href="#a"/></mask><g opacity=".8" mask="url(#b)"><g transform="translate(-24 -8)"><mask id="e" fill="#fff"><use xlink:href="#c"/></mask><path fill="url(#d)" fill-rule="nonzero" opacity=".124" mask="url(#e)" transform="matrix(-1 0 0 1 323.496 0)" d="M.147 154.096l160.715-94.607 162.486 94.607-161.305 94.015z"/><g mask="url(#e)"><path fill="url(#f)" fill-rule="nonzero" filter="url(#g)" transform="matrix(-1 0 0 1 429.268 6.955)" d="M128.891 130.334H234.79l25.202 14.91-23.19 13.268H128.89z"/><path fill="url(#f)" fill-rule="nonzero" filter="url(#h)" transform="matrix(-1 0 0 1 377.14 6.955)" d="M76.557 68.597h148.3l35.34 20.866-32.467 18.608H76.557z"/><path fill="url(#i)" fill-rule="nonzero" filter="url(#j)" transform="matrix(-1 0 0 1 267.67 6.955)" d="M30.298 165.084H170.02l26.967 15.938-52.744 29.698H30.298z"/><g fill-rule="nonzero"><path fill="#F9F9F9" d="M132.417 72.759V85.08l-12.601 7.353V80.07z"/><path fill="url(#k)" d="M73.555 75.767v12.322l-12.602 7.353V83.078z" transform="matrix(-1 0 0 1 132.704 72.677)"/><path fill="url(#l)" d="M48.434 75.767l12.52-7.353 12.6 7.353-12.518 7.311z" transform="matrix(-1 0 0 1 132.704 72.677)"/><path fill="url(#m)" d="M52.005 66.502v-3.697L19.866 81.207v3.697z" transform="matrix(-1 0 0 1 169.235 11.884)"/><path fill="url(#n)" d="M34.82.026l19.597 11.431-34.552 20.005L.268 19.948z" transform="matrix(-1 0 0 1 169.235 11.884)"/><path fill="url(#o)" d="M1.642 74.347v-5.134L19.866 79.81v5.093z" transform="matrix(-1 0 0 1 169.235 11.884)"/><path fill="url(#p)" d="M.328 69.83V19.962l19.58 11.378v49.866z" transform="matrix(-1 0 0 1 169.235 11.884)"/><path fill="url(#q)" d="M54.427 61.409V11.542l-34.52 19.799v49.866z" transform="matrix(-1 0 0 1 169.235 11.884)"/><path fill="url(#o)" d="M1.642 83.466v-5.093l18.224 10.556v5.135z" transform="matrix(-1 0 0 1 169.235 11.884)"/><path fill="url(#r)" d="M.328 78.948v-5.504l19.58 11.378v5.504z" transform="matrix(-1 0 0 1 169.235 11.884)"/><path fill="url(#o)" d="M1.642 92.626v-5.093L19.866 98.13v5.094z" transform="matrix(-1 0 0 1 169.235 11.884)"/><path fill="url(#s)" d="M.328 88.108v-5.463l19.58 11.378v5.463z" transform="matrix(-1 0 0 1 169.235 11.884)"/><path fill="#5C88E0" opacity=".7" d="M168.907 85.328l-1.314-.74v1.52zm0 9.16l-1.314-.74v1.52z"/><path fill="#91B8F3" d="M114.808 76.948l2.422-1.109v2.465zm0 9.16L117.23 85v2.506z"/><path d="M3.448 16.554l-3.284 1.89v5.093l3.284-1.89zM20.236 6.9v5.135l12.067-6.9V0z" transform="matrix(-1 0 0 1 149.533 91.571)" fill="url(#t)"/><path fill="url(#u)" d="M19.825 7.435h.41v3.688l12.068-6.901V.288z" transform="matrix(-1 0 0 1 149.533 83.324)"/><path fill="url(#t)" d="M3.448 15.641L.164 17.49v5.134l3.284-1.89z" transform="matrix(-1 0 0 1 149.533 83.324)"/><path fill="url(#v)" d="M54.427 70.527v-5.463l-34.52 19.758v5.504zm0 9.201v-5.504l-34.52 19.799v5.463z" transform="matrix(-1 0 0 1 169.235 11.884)"/></g><path fill="url(#w)" fill-rule="nonzero" d="M16.008 12.665v2.424l-7.88 4.6v-2.465z" transform="matrix(-1 0 0 1 167.593 11.624)"/><path fill="#E9E9E9" fill-rule="nonzero" d="M167.37 22.23v8.667l-3.654-2.095-4.269 2.506v-2.465z"/><path fill="url(#x)" opacity=".6" filter="url(#y)" d="M16.754 9.16l4.852 1.682 4.852-1.16-1.782-.954V.174L20.17 5.316z" transform="matrix(-1 0 0 1 167.593 11.624)"/><path fill="#FFF" fill-rule="nonzero" d="M151.585 24.29l7.84-6.696 7.922 4.641-7.88 6.614z"/><g fill-rule="nonzero"><path fill="url(#w)" d="M15.926 6.778V9.2l-7.922 4.642v-2.465z" transform="matrix(-1 0 0 1 149.123 6.955)"/><path fill="#E9E9E9" d="M149 11.679v8.79l-3.736-2.136-4.186 2.465v-2.465z"/><path fill="#FFF" d="M133.197 13.733l7.88-6.655 7.922 4.6-7.88 6.655z"/></g><g fill-rule="nonzero"><path fill="url(#z)" d="M45.602.164v57.383L22.74 70.897V13.432z" transform="matrix(-1 0 0 1 215.207 94.858)"/><path fill="url(#A)" d="M45.602 46.868v10.72l-14.735 8.585V55.411z" transform="matrix(-1 0 0 1 215.207 94.858)"/><path fill="url(#B)" d="M45.602 57.588l-14.735 8.585v-3.368l14.735-8.585z" transform="matrix(-1 0 0 1 215.207 94.858)"/><path fill="url(#C)" d="M42.688 55.863v-6.9l2.914-1.685v10.27z" transform="matrix(-1 0 0 1 215.207 94.858)"/></g><path fill="url(#D)" fill-rule="nonzero" transform="matrix(-1 0 0 1 235.243 6.955)" d="M88.912 106.387V93.489l17.034-9.858v13.02z"/><g opacity=".734"><path opacity=".633" d="M114.808 62.86v.985l34.52 20.045v-1.068zm0-10.023v1.027l34.52 20.045V72.84zm0-9.982v.986l34.52 20.045V62.86zm0-9.981v.986l34.52 20.045v-1.068z" fill="#BFFCFF" fill-rule="nonzero"/></g><g fill-rule="nonzero"><path fill="url(#E)" d="M.328 30.19v1.028L19.866 42.43v-1.068zm0-9.98v.985L19.866 32.45v-1.068z" transform="matrix(-1 0 0 1 169.235 41.459)"/><path fill="url(#F)" d="M.328 10.228v.986l19.538 11.213v-1.026z" transform="matrix(-1 0 0 1 169.235 41.459)"/><path fill="url(#G)" d="M.328.205v1.027l19.538 11.214v-1.068z" transform="matrix(-1 0 0 1 169.235 41.459)"/></g><path d="M8.926 18.744l-4.37 2.574-4.433-2.587 4.392-2.547 12.314-7.23-4.515-2.628L22.698.206l4.516 2.628h.04l22.863 13.35-22.74 13.267-18.45-10.707z" fill="url(#H)" fill-rule="nonzero" transform="matrix(-1 0 0 1 219.722 78.838)"/><path d="M143.263 170.033L99.63 145.141l-4.474 2.67 45.89 26.166c.369.205.738.287 1.107.287.78 0 1.56-.41 1.97-1.15.616-1.109.247-2.465-.861-3.08z" fill-opacity=".041" fill="#005496" fill-rule="nonzero" filter="url(#I)" transform="matrix(-1 0 0 1 279.963 6.955)"/><path fill="url(#J)" fill-rule="nonzero" transform="matrix(-1 0 0 1 234.833 6.955)" d="M92.196 104.25v-9.899l10.056-5.791v9.94z"/><path fill="url(#K)" fill-rule="nonzero" transform="matrix(-1 0 0 1 234.833 6.955)" d="M102.17 98.459l-8.538-4.93-1.436.822 10.056-5.791z"/><path d="M111.01 107.137L82.568 90.99l-2.16 1.333-2.21 1.365 30.554 17.353c.821.451 1.355 1.067 1.355 1.52 0 .451-.534 1.026-1.355 1.52l-40.594 23.618c-2.299 1.314-3.612 3.327-3.612 5.463s1.313 4.107 3.612 5.463L93.4 163.288c.37.205.739.288 1.15.288.78 0 1.518-.411 1.97-1.11.615-1.067.246-2.464-.821-3.08l-25.244-14.664c-.82-.493-1.354-1.068-1.354-1.561 0-.452.533-1.068 1.354-1.561l40.595-23.619c2.298-1.314 3.612-3.327 3.612-5.422 0-2.136-1.355-4.107-3.653-5.422z" fill="url(#L)" fill-rule="nonzero" opacity=".8" transform="matrix(-1 0 0 1 219.594 6.955)"/><path d="M52.539 33.272c-.37 0-.78-.083-1.108-.288L1.437 4.477C.369 3.861-.041 2.465.616 1.397 1.23.329 2.627-.083 3.694.575l49.994 28.507c1.068.616 1.478 2.012.821 3.08-.41.699-1.19 1.11-1.97 1.11z" fill="url(#L)" fill-rule="nonzero" transform="matrix(-1 0 0 1 186.654 142.845)" opacity=".8"/><path d="M45.644 80.449c-2.545 0-5.09-.575-7.1-1.684L8.086 61.472c-2.299-1.315-3.653-3.286-3.653-5.422 0-2.136 1.313-4.108 3.612-5.422L30.17 37.935c1.026-.575 1.354-1.15 1.354-1.52 0-.37-.37-.944-1.354-1.52L3.572 19.452C1.273 18.096-.04 16.124 0 14.03c.041-2.136 1.396-4.066 3.735-5.34L19.293.27c1.108-.575 2.462-.206 3.078.903.575 1.11.205 2.465-.903 3.081l-15.556 8.42c-1.027.535-1.355 1.11-1.396 1.438 0 .329.328.904 1.355 1.479l26.597 15.444c2.299 1.356 3.612 3.328 3.612 5.464 0 2.136-1.313 4.107-3.653 5.422L10.304 54.612c-.986.575-1.355 1.15-1.355 1.479 0 .328.37.903 1.355 1.479L40.76 74.863c2.627 1.478 7.224 1.478 9.85-.042l56.234-32.984c4.022-2.34 10.303-2.382 14.366-.123l5.993 3.327c1.108.617 1.477 1.972.862 3.081-.616 1.11-1.97 1.479-3.079.863l-5.992-3.327c-2.668-1.48-7.266-1.438-9.893.082L52.868 78.724c-2.01 1.109-4.638 1.725-7.224 1.725z" fill="url(#L)" fill-rule="nonzero" transform="matrix(-1 0 0 1 265.806 133.056)" opacity=".8"/><g fill-rule="nonzero"><path fill="url(#M)" d="M.37 75.539V39.35l23.19 13.473v36.188z" transform="matrix(-1 0 0 1 147.07 118.95)"/><path fill="#E5F0FF" d="M120.144 172.719v-35.202L96.953 150.99v35.16z"/><path fill="url(#N)" d="M52.95 3.779l23.437 13.473-26.27 14.787-23.19-13.514z" transform="matrix(-1 0 0 1 147.07 118.95)"/><path fill="url(#O)" opacity=".62" d="M52.95.288l23.519 13.185-26.352 15.075-23.19-13.514z" transform="matrix(-1 0 0 1 147.07 118.95)"/><path fill="url(#P)" d="M76.264 17.252L49.994 32.08v22.222L23.56 69.624v19.388L54.1 71.719l22.165-12.61z" transform="matrix(-1 0 0 1 147.07 118.95)"/><path fill="#50C0E4" opacity=".919" d="M120.472 159.821l-23.396 13.432 26.434 15.321 23.19-13.514z"/><g opacity=".6"><path fill="#FFF" opacity=".588" d="M70.601 162.04v5.093l53.032 30.807v-5.176z"/><path fill="#FFF" opacity=".4" d="M70.601 152.386v5.094l26.352 15.034v-5.176z"/><path fill="#2D48B5" opacity=".3" d="M146.7 179.579v4.723l-23.15 13.638v-4.765z"/><path fill="#FFF" opacity=".4" d="M70.601 142.364v5.134l26.352 14.993v-5.134z"/></g><g fill="#2D48B5"><path opacity=".3" d="M76.143 169.392v11.378l15.68 9.16v-11.46z"/><path d="M76.143 181.263l15.68 8.667v-3.615l-15.68-8.626z"/><path d="M79.262 179.373v-8.215l-3.12-1.766v11.748z"/></g><path fill="#33ABF6" d="M96.953 147.457v.616l23.15-13.637v-.534z"/><path fill="#FFF" d="M120.308 143.637l-23.232 13.514 26.475 14.541 23.15-13.39z"/><path fill="url(#Q)" opacity=".711" d="M26.762 24.687L49.994 38.2 23.52 52.74.37 39.351z" transform="matrix(-1 0 0 1 147.07 118.95)"/><path fill="url(#R)" d="M49.994 54.302V38.201L23.52 52.74v16.883z" transform="matrix(-1 0 0 1 147.07 118.95)"/></g><path d="M3.026 7.27c.036-.04.072-.1.072-.141.18-.304.288-.588.144-.892-.18-.364-.72-.628-.972-.972-.18-.284-.144-.587 0-.85.144-.244.36-.467.252-.73-.108-.263-.504-.466-.648-.73-.252-.485.252-.972 1.08-1.113.576-.102 1.296.02 1.656.283.468.324.216.73.432 1.094.144.263.504.405.864.567.396.183.72.426.864.71.18.344 0 .708.144 1.073.18.385.648.648 1.188.891.576.243.971.588 1.187.972.504.973-.467 1.986-2.16 2.29l-1.546-3.02.72-.729c.036-.02 0-.06-.036-.081-.036-.02-.108 0-.144.02l-.648.648-2.088-4.03c0-.02-.072-.041-.108-.041-.036 0-.072.04-.072.06l1.008 1.925-1.152-.365c-.036-.02-.108 0-.144.02-.036.02 0 .061.036.082l1.332.405L6.23 8.364 5.078 8c-.036-.02-.108 0-.144.02-.036.02 0 .06.036.08l1.296.406.648 1.236c-1.728.263-3.528-.304-4.032-1.276-.144-.426-.108-.831.144-1.196z" fill="url(#S)" fill-rule="nonzero" filter="url(#T)" transform="scale(-1 1) rotate(-43 80.443 205.336)" opacity=".1"/><g transform="matrix(-1 0 0 1 110.129 98.144)" fill="url(#U)" fill-rule="nonzero"><path d="M6.937 8.503c.082-.041.123-.124.164-.165.37-.328.698-.657.82-1.19.165-.576-.081-1.192 0-1.767.083-.452.33-.863.658-1.191.287-.288.656-.493.78-.904.123-.41-.042-.863.04-1.273.165-.78.945-1.233 1.724-1.068a1.52 1.52 0 0 1 1.109 1.109c.123.657-.41 1.109-.534 1.725-.082.41.082.78.246 1.15.165.452.247.904.124 1.356-.124.575-.575.985-.74 1.56-.163.617 0 1.192.247 1.767.246.575.328 1.232.164 1.848a2.97 2.97 0 0 1-3.489 2.218L9.4 8.79l1.149-.698c.04-.041.04-.082.04-.123 0-.041-.081-.041-.122-.041l-.985.616L11 2.013c0-.041 0-.082-.082-.082-.04 0-.082 0-.082.082l-.739 3.08-.615-1.026c-.041-.042-.082-.042-.123-.042-.042 0-.042.083-.042.124l.698 1.15-1.436 6.079-.616-.986c-.041-.04-.082-.04-.123-.04-.041 0-.041.081-.041.122l.698 1.15-.452 2.013c-1.56-.41-2.504-1.971-2.134-3.573a3.71 3.71 0 0 1 1.026-1.561z"/><path d="M1.437 11.173a.762.762 0 0 0 .082-.288c.205-.616.328-1.191.164-1.807-.205-.74-.821-1.274-1.108-1.972-.206-.575-.165-1.191 0-1.725.164-.493.41-.945.287-1.479-.123-.534-.575-.945-.739-1.479A1.824 1.824 0 0 1 1.355.164C2.01-.04 2.832.205 3.243.74c.533.658.246 1.48.492 2.218.164.534.575.822.985 1.15.452.37.821.863.985 1.438.206.699 0 1.438.165 2.177.205.78.738 1.315 1.354 1.808.657.493 1.108 1.19 1.355 1.971a3.766 3.766 0 0 1-2.463 4.642l-1.765-6.12.82-1.48c.042-.04 0-.122-.04-.164-.041-.04-.123 0-.164.042l-.74 1.314-2.38-8.174c0-.041-.082-.082-.123-.082-.041 0-.082.082-.082.123l1.15 3.902-1.314-.74c-.041-.04-.123 0-.165.042-.04.041 0 .123.042.164l1.518.822L5.09 13.39l-1.314-.74c-.04-.04-.123 0-.164.041-.041.042 0 .124.041.165l1.478.821.739 2.506a3.772 3.772 0 0 1-4.598-2.588c-.164-.862-.123-1.684.165-2.423z"/></g><g fill-rule="nonzero"><path fill="url(#V)" d="M14.12 28.178L.164 36.23v.78l13.956-8.092 8.907-5.134v-.74l-8.907 5.094z" transform="matrix(-1 0 0 1 192.631 106.359)"/><path fill="url(#W)" d="M14.12 16.677L.164 24.727v.781l13.956-8.092 8.907-5.134v-.74l-8.907 5.094z" transform="matrix(-1 0 0 1 192.631 106.359)"/><path fill="url(#X)" d="M14.12 5.134v.042L.164 13.226v.78l13.956-8.09L23.027.78V.041z" transform="matrix(-1 0 0 1 192.631 106.359)"/></g><path d="M114.704 110.998L81.498 92.145l-1.889 1.068v3.04l32.837 18.648c.821.451 1.355 1.068 1.355 1.52 0 .451-.534 1.026-1.355 1.52l-40.594 23.618c-2.299 1.314-3.612 3.327-3.612 5.463s1.313 4.108 3.612 5.463l25.243 14.664c.37.206.739.288 1.15.288.78 0 1.518-.411 1.97-1.11.615-1.067.246-2.464-.821-3.08L74.15 148.583c-.82-.493-1.354-1.068-1.354-1.561 0-.452.533-1.068 1.354-1.56l40.595-23.62c2.299-1.314 3.612-3.327 3.612-5.422 0-2.135-1.355-4.107-3.653-5.422z" fill-opacity=".041" fill="#005496" fill-rule="nonzero" filter="url(#Y)" transform="matrix(-1 0 0 1 226.982 6.955)"/><path d="M45.684 80.755c-2.545 0-5.09-.575-7.1-1.684L8.126 61.778c-2.298-1.314-3.653-3.286-3.653-5.422 0-2.136 1.314-4.107 3.612-5.422L30.21 38.242c1.026-.575 1.354-1.15 1.354-1.52 0-.37-.369-.945-1.354-1.52L3.612 19.758C1.313 18.402 0 16.43.041 14.335c.041-2.135 1.396-4.066 3.735-5.34L19.333.576C20.44 0 21.795.37 22.41 1.48c.575 1.109.205 2.464-.903 3.08L5.952 12.98c-1.026.534-1.355 1.109-1.396 1.438 0 .328.328.903 1.355 1.478l26.598 15.445c2.298 1.355 3.612 3.327 3.612 5.463s-1.314 4.108-3.654 5.422L10.344 54.92c-.985.575-1.355 1.15-1.355 1.478 0 .329.37.904 1.355 1.479L40.8 75.169c2.627 1.479 7.224 1.479 9.85-.041l56.234-32.984c4.023-2.341 10.303-2.382 14.366-.123l5.993 3.327c1.108.616 1.478 1.971.862 3.08-.616 1.11-1.97 1.48-3.079.863l-5.992-3.327c-2.668-1.479-7.265-1.438-9.892.082L52.908 79.03c-2.01 1.15-4.638 1.725-7.224 1.725z" fill="#005496" fill-rule="nonzero" filter="url(#Z)" transform="matrix(-1 0 0 1 267.104 140.273)" fill-opacity=".041"/><g fill-rule="nonzero"><g opacity=".7"><g opacity=".538" transform="matrix(-1 0 0 1 192.631 142.592)" fill="url(#aa)"><path d="M11.74.329v.862c0 .411-.247.863-.575 1.027-.329.164-.575 0-.575-.37V.986l1.15-.657z" filter="url(#ab)" transform="translate(11.137 .282)"/><path d="M10.59.986v.862c0 .411-.246.863-.575 1.027-.328.165-.574 0-.574-.37v-.862L10.59.986z" filter="url(#ac)" transform="translate(11.137 .282)"/><path d="M9.482 1.643v.863c0 .41-.247.862-.575 1.027-.328.164-.575 0-.575-.37V2.3l1.15-.657z" filter="url(#ad)" transform="translate(11.137 .282)"/><path d="M8.332 2.3v.863c0 .41-.246.862-.574 1.027-.329.164-.575 0-.575-.37v-.863l1.15-.657z" filter="url(#ae)" transform="translate(11.137 .282)"/></g></g><path fill="#F3F8FF" d="M169.646 139.59l-1.889 2.053 1.15.657 1.888-2.095z"/><path fill="#2D48B5" d="M170.795 140.205l-1.888 2.095 1.15.657 1.846-2.094z"/><path fill="#F3F8FF" d="M171.903 140.863l-1.888 2.094 1.15.658 1.887-2.095z"/><path fill="#2D48B5" d="M173.052 141.52l-1.888 2.095 1.15.657 1.888-2.095z"/><path fill="#F3F8FF" d="M174.202 142.177l-1.888 2.095 1.149.657 1.888-2.095z"/><path fill="#2D48B5" d="M175.31 142.834l-1.847 2.054 1.108.657 1.888-2.095z"/><path d="M167.757 141.602v.863c0 .41.247.862.575 1.026.328.165.575 0 .575-.37v-.862l-1.15-.657z" fill="#D2D7F9"/><path d="M168.907 142.26v.862c0 .41.246.862.574 1.027.329.164.575 0 .575-.37v-.863l-1.15-.657z" fill="#2D48B5"/><path d="M170.015 142.916v.863c0 .41.246.863.575 1.027.328.164.574 0 .574-.37v-.862l-1.149-.658z" fill="#D2D7F9"/><path d="M171.164 143.574v.862c0 .41.247.863.575 1.027.328.164.575 0 .575-.37v-.862l-1.15-.657z" fill="#2D48B5"/><path d="M172.314 144.23v.863c0 .411.246.863.574 1.027.329.165.575 0 .575-.37v-.862l-1.15-.657z" fill="#D2D7F9"/><path d="M173.422 144.888v.863c0 .41.246.862.574 1.027.329.164.575 0 .575-.37v-.863l-1.15-.657z" fill="#2D48B5"/></g><g opacity=".5"><path opacity=".6" d="M110.334 174.422l9.974 22.263-2.914-1.684-9.933-22.181zm-4.597-2.547l9.892 22.14-1.683-.986-9.892-22.058z" fill="#FFF" fill-rule="nonzero"/></g><path fill="url(#af)" fill-rule="nonzero" opacity=".438" filter="url(#ag)" transform="matrix(-1 0 0 1 237.69 6.955)" d="M107.416 37.342V30.4L89.889 40.423v6.941z"/><path fill="#FFF" fill-rule="nonzero" d="M129.092 42.362v-7.311l17.568 10.064v7.311z"/><g transform="matrix(-1 0 0 1 128.263 113.395)" fill-rule="nonzero"><ellipse fill="#FD6F8D" cx="3.161" cy="9.858" rx="2.791" ry="1.273"/><path d="M4.926 9.53L3.612.986c-.123-.822-.698-1.232-.903 0L1.396 9.53v.082c0 .41.78.78 1.765.78.985 0 1.765-.37 1.765-.78V9.53z" fill="#FFF"/><path d="M4.68 8.01l-.288-1.89c-.287.247-.739.37-1.231.37-.493 0-.945-.123-1.232-.37l-.287 1.89c.41.287.944.452 1.519.452.574-.041 1.108-.206 1.518-.452zM4.187 4.6L3.98 3.369c-.205.165-.492.247-.82.247-.329 0-.616-.082-.821-.247l-.206 1.233c.288.205.616.287.986.287a1.5 1.5 0 0 0 1.067-.287zm-.452-2.834l-.123-.78c-.123-.822-.698-1.232-.903 0l-.123.78c.164.082.328.165.575.165.246 0 .41-.083.574-.165z" fill="#FD6F8D"/></g><g transform="matrix(-1 0 0 1 139.756 113.395)" fill-rule="nonzero"><ellipse fill="#FD6F8D" cx="3.037" cy="9.858" rx="2.791" ry="1.273"/><path d="M4.802 9.53L3.49.986c-.123-.822-.698-1.232-.903 0L1.272 9.53v.082c0 .41.78.78 1.765.78.986 0 1.765-.37 1.765-.78V9.53z" fill="#FFF"/><path d="M4.556 8.01L4.27 6.12c-.288.247-.739.37-1.232.37-.492 0-.944-.123-1.231-.37L1.52 8.01c.41.287.944.452 1.518.452.575-.041 1.109-.206 1.52-.452zM4.064 4.6l-.206-1.232c-.205.165-.492.247-.82.247-.329 0-.616-.082-.822-.247l-.205 1.233c.288.205.616.287.985.287.452.041.78-.082 1.068-.287zm-.452-2.834L3.49.986c-.123-.822-.698-1.232-.903 0l-.123.78c.164.082.328.165.574.165.247 0 .41-.083.575-.165z" fill="#FD6F8D"/></g><path d="M131.61 38.87l8.126 4.682a.226.226 0 0 1 .124.206v2.218c0 .082-.042.123-.124.082l-8.127-4.683a.226.226 0 0 1-.123-.205v-2.218c0-.082.041-.123.123-.082zm10.141 5.658c-.082-.04-.123 0-.123.082v2.26c0 .082.041.164.123.205l2.053 1.232c.082.041.123 0 .123-.082v-2.3a.226.226 0 0 0-.123-.206l-2.053-1.19z" fill="#2BF5AD" fill-rule="nonzero" opacity=".908"/><path fill="url(#x)" opacity=".596" filter="url(#ah)" d="M100.676 13.787l4.852.522h4.852l-1.782-.955V4.8l-4.505 5.141z" transform="translate(40.385 6.955)"/><path fill="url(#x)" opacity=".596" filter="url(#ai)" d="M119.053 24.187h4.852l4.852.522-1.782-.955V15.2l-4.505 5.141z" transform="translate(40.385 6.955)"/></g></g></g></g></svg>