<svg width="50" height="50" viewBox="0 0 50 50" xmlns="http://www.w3.org/2000/svg" xmlns:xlink="http://www.w3.org/1999/xlink"><defs><linearGradient x1="21.217%" y1="94.944%" x2="76.232%" y2="1.724%" id="a"><stop stop-color="#6AC7FF" offset="0%"/><stop stop-color="#148AFF" offset="100%"/></linearGradient><path d="M23.876 28.463l-2.203-2.205a1.187 1.187 0 1 1 1.679-1.68v.001l1.231 1.232 3.097-3.096a1.187 1.187 0 1 1 1.68 1.68l-4.07 4.068a1 1 0 0 1-1.414 0z" id="c"/><filter x="-59.7%" y="-78.3%" width="267%" height="319.1%" filterUnits="objectBoundingBox" id="b"><feOffset dx="2" dy="2" in="SourceAlpha" result="shadowOffsetOuter1"/><feGaussianBlur stdDeviation="2" in="shadowOffsetOuter1" result="shadowBlurOuter1"/><feColorMatrix values="0 0 0 0 0 0 0 0 0 0 0 0 0 0 0 0 0 0 0.0727185236 0" in="shadowBlurOuter1"/></filter><path d="M25.247 39.162c-.15 0-.302-.025-.446-.075-11.541-4.001-11.361-13.42-11.23-20.298.014-.723.027-1.406.027-2.066 0-.752.61-1.362 1.363-1.362 3.957 0 6.837-1.084 9.338-3.517a1.36 1.36 0 0 1 1.9 0c2.501 2.433 5.381 3.517 9.339 3.517a1.365 1.365 0 0 1 1.362 1.362c0 .659.014 1.342.027 2.065.132 6.878.312 16.297-11.23 20.298a1.369 1.369 0 0 1-.45.076zM16.31 18.045l-.015.796c-.126 6.607-.269 14.081 8.953 17.512 9.223-3.43 9.08-10.906 8.954-17.512l-.014-.795c-3.55-.216-6.442-1.313-8.94-3.392-2.498 2.079-5.388 3.175-8.938 3.391z" id="e"/><filter x="-21.4%" y="-18%" width="159.8%" height="150.5%" filterUnits="objectBoundingBox" id="d"><feOffset dx="2" dy="2" in="SourceAlpha" result="shadowOffsetOuter1"/><feGaussianBlur stdDeviation="2" in="shadowOffsetOuter1" result="shadowBlurOuter1"/><feColorMatrix values="0 0 0 0 0 0 0 0 0 0 0 0 0 0 0 0 0 0 0.0727185236 0" in="shadowBlurOuter1"/></filter></defs><g fill="none"><circle fill="url(#a)" cx="25" cy="25" r="25"/><use fill="#000" filter="url(#b)" xlink:href="#c"/><use fill="#FFF" fill-rule="evenodd" xlink:href="#c"/><use fill="#000" filter="url(#d)" xlink:href="#e"/><use fill="#FFF" fill-rule="evenodd" xlink:href="#e"/></g></svg>