<svg width="150" height="175" viewBox="0 0 150 175" xmlns="http://www.w3.org/2000/svg" xmlns:xlink="http://www.w3.org/1999/xlink"><defs><path id="a" d="M0 0h200v200H0z"/><radialGradient cx="49.997%" cy="50.002%" fx="49.997%" fy="50.002%" r="171.696%" gradientTransform="matrix(.5793 .00074 -.00043 1 .21 0)" id="c"><stop stop-color="#C4D6EE" offset="0%"/><stop stop-color="#CBDBF0" stop-opacity=".905" offset="18.547%"/><stop stop-color="#E0E9F6" stop-opacity=".762" offset="48.604%"/><stop stop-color="#FFF" stop-opacity=".6" offset="100%"/></radialGradient><linearGradient x1="-.002%" y1="49.996%" x2="99.981%" y2="49.996%" id="d"><stop stop-color="#2756C1" offset="0%"/><stop stop-color="#0098E9" offset="99.88%"/></linearGradient><linearGradient x1="-2.436%" y1="73.23%" x2="44.505%" y2="73.23%" id="e"><stop stop-color="#7EDEFF" stop-opacity=".032" offset="0%"/><stop stop-color="#0041B1" stop-opacity=".41" offset="100%"/></linearGradient><filter x="-1.9%" y="-5.4%" width="103.8%" height="110.7%" filterUnits="objectBoundingBox" id="f"><feGaussianBlur stdDeviation="1.248" in="SourceGraphic"/></filter><linearGradient x1="-27.152%" y1="90.661%" x2="110.808%" y2="31.702%" id="g"><stop stop-color="#7EDEFF" stop-opacity=".17" offset="0%"/><stop stop-color="#0041B1" stop-opacity=".41" offset="100%"/></linearGradient><filter x="-5.6%" y="-11%" width="111.3%" height="122.1%" filterUnits="objectBoundingBox" id="h"><feGaussianBlur stdDeviation=".8" in="SourceGraphic"/></filter><filter x="-5.6%" y="-11%" width="111.3%" height="122.1%" filterUnits="objectBoundingBox" id="i"><feGaussianBlur stdDeviation=".8" in="SourceGraphic"/></filter><linearGradient x1="97.539%" y1="62.252%" x2="1.403%" y2="45.062%" id="j"><stop stop-color="#8EF" offset="0%"/><stop stop-color="#59E7FF" offset="13.832%"/><stop stop-color="#2DCCFF" offset="100%"/></linearGradient><linearGradient x1="-75.357%" y1="50%" y2="50%" id="k"><stop stop-color="#FFF" stop-opacity=".132" offset="0%"/><stop stop-color="#FFF" stop-opacity=".645" offset="100%"/></linearGradient><linearGradient x1="15.345%" y1="122.156%" x2="50%" y2="68.173%" id="l"><stop stop-color="#DADADA" offset="0%"/><stop stop-color="#155395" offset="100%"/></linearGradient><linearGradient x1="15.345%" y1="122.156%" x2="50%" y2="68.173%" id="m"><stop stop-color="#FFF" offset="0%"/><stop stop-color="#2D7BD0" offset="100%"/></linearGradient><filter x="-7.2%" y="-3.9%" width="114.5%" height="107.8%" filterUnits="objectBoundingBox" id="n"><feGaussianBlur stdDeviation=".81" in="SourceGraphic"/></filter><linearGradient x1="91.728%" y1="39.638%" x2="38.52%" y2="54.192%" id="o"><stop stop-color="#EDF8FF" offset="0%"/><stop stop-color="#216EC1" offset="100%"/></linearGradient><linearGradient x1="38.062%" y1="40.313%" x2="55.396%" y2="74.498%" id="p"><stop stop-color="#0093FF" offset="0%"/><stop stop-color="#005DFF" offset="95.58%"/></linearGradient><linearGradient x1="35.92%" y1="100.269%" x2="77.074%" y2="33.673%" id="q"><stop stop-color="#FFF" stop-opacity="0" offset="0%"/><stop stop-color="#51DCE4" stop-opacity=".996" offset="69.115%"/><stop stop-color="#50B6E4" offset="100%"/></linearGradient><linearGradient x1="67.088%" y1="84.881%" x2="0%" y2="0%" id="r"><stop stop-color="#FFF" stop-opacity="0" offset="0%"/><stop stop-color="#FFF" offset="100%"/></linearGradient><filter x="-44.2%" y="-25%" width="188.4%" height="150.1%" filterUnits="objectBoundingBox" id="s"><feGaussianBlur stdDeviation=".4" in="SourceGraphic"/></filter><filter x="-33.3%" y="-21.5%" width="166.5%" height="143.1%" filterUnits="objectBoundingBox" id="t"><feGaussianBlur stdDeviation=".4" in="SourceGraphic"/></filter><filter x="-37.8%" y="-21.9%" width="175.6%" height="143.8%" filterUnits="objectBoundingBox" id="u"><feGaussianBlur stdDeviation=".4" in="SourceGraphic"/></filter><filter x="-32.2%" y="-18.6%" width="164.4%" height="137.3%" filterUnits="objectBoundingBox" id="v"><feGaussianBlur stdDeviation=".4" in="SourceGraphic"/></filter><filter x="-46.2%" y="-20.7%" width="192.4%" height="141.4%" filterUnits="objectBoundingBox" id="w"><feGaussianBlur stdDeviation=".4" in="SourceGraphic"/></filter><filter x="-40%" y="-19.8%" width="179.9%" height="139.6%" filterUnits="objectBoundingBox" id="x"><feGaussianBlur stdDeviation=".4" in="SourceGraphic"/></filter><filter x="-43.3%" y="-22.5%" width="186.6%" height="144.9%" filterUnits="objectBoundingBox" id="y"><feGaussianBlur stdDeviation=".4" in="SourceGraphic"/></filter><filter x="-54%" y="-21.5%" width="208%" height="143.1%" filterUnits="objectBoundingBox" id="z"><feGaussianBlur stdDeviation=".4" in="SourceGraphic"/></filter><filter x="-143.3%" y="-25%" width="386.7%" height="150.1%" filterUnits="objectBoundingBox" id="A"><feGaussianBlur stdDeviation=".4" in="SourceGraphic"/></filter><filter x="-40%" y="-19.9%" width="179.9%" height="139.8%" filterUnits="objectBoundingBox" id="B"><feGaussianBlur stdDeviation=".4" in="SourceGraphic"/></filter><filter x="-38.8%" y="-19.7%" width="177.7%" height="139.4%" filterUnits="objectBoundingBox" id="C"><feGaussianBlur stdDeviation=".4" in="SourceGraphic"/></filter><filter x="-38.5%" y="-24.1%" width="177%" height="148.2%" filterUnits="objectBoundingBox" id="D"><feGaussianBlur stdDeviation=".4" in="SourceGraphic"/></filter><linearGradient x1=".034%" y1="49.957%" x2="100.04%" y2="49.957%" id="E"><stop stop-color="#2756C1" offset="0%"/><stop stop-color="#0098E9" offset="99.88%"/></linearGradient><linearGradient x1="-2.436%" y1="73.23%" x2="44.505%" y2="73.23%" id="F"><stop stop-color="#7EDEFF" stop-opacity=".093" offset="0%"/><stop stop-color="#0041B1" stop-opacity=".839" offset="97.933%"/></linearGradient><filter x="-4.3%" y="-8%" width="108.6%" height="116.1%" filterUnits="objectBoundingBox" id="G"><feGaussianBlur stdDeviation=".4" in="SourceGraphic"/></filter><linearGradient x1="50%" y1="95.789%" y2="37.626%" id="H"><stop stop-color="#2756C1" offset="0%"/><stop stop-color="#0098E9" offset="100%"/></linearGradient><filter x="-9%" y="-24%" width="118%" height="148.1%" filterUnits="objectBoundingBox" id="I"><feGaussianBlur stdDeviation=".4" in="SourceGraphic"/></filter><linearGradient x1="46.41%" y1="50%" x2="106.128%" y2="40.764%" id="J"><stop stop-color="#154CC7" offset="0%"/><stop stop-color="#0098E9" offset="100%"/></linearGradient><linearGradient x1="113.136%" y1="62.142%" x2="53.937%" y2="100%" id="K"><stop stop-color="#FFAFAF" offset="0%"/><stop stop-color="#FF5C5C" offset="100%"/></linearGradient><linearGradient x1="110.53%" y1="44.449%" x2="43.542%" y2="66.327%" id="L"><stop stop-color="#FFC6C6" offset="0%"/><stop stop-color="#FF7C7C" offset="100%"/></linearGradient><linearGradient x1="73.473%" y1="26.686%" x2="79.458%" y2="44.466%" id="M"><stop stop-color="#00933F" offset="0%"/><stop stop-color="#01BE61" offset="100%"/></linearGradient><linearGradient x1="12.001%" y1="72.842%" y2="69.252%" id="N"><stop stop-color="#09C57F" offset="0%"/><stop stop-color="#40F59C" offset="100%"/></linearGradient><linearGradient x1="122.284%" y1="34.694%" x2="55.351%" y2="92.845%" id="O"><stop stop-color="#FFD53B" offset="0%"/><stop stop-color="#FF6262" offset="100%"/></linearGradient><filter x="-3.3%" y="-2.5%" width="106.6%" height="105%" filterUnits="objectBoundingBox" id="P"><feGaussianBlur stdDeviation=".4" in="SourceGraphic"/></filter><linearGradient x1="65.808%" y1="72.094%" x2="69.991%" y2="58.584%" id="Q"><stop stop-color="#EBF2F8" offset="0%"/><stop stop-color="#D3E0EF" offset="100%"/></linearGradient><linearGradient x1="57.097%" y1="27.85%" x2="48.204%" y2="59.032%" id="R"><stop stop-color="#FF1D5D" offset="0%"/><stop stop-color="#FF6888" offset="100%"/></linearGradient><linearGradient x1="33.06%" y1="17.003%" x2="20.778%" y2="58.043%" id="S"><stop stop-color="#1ABAD1" offset="0%"/><stop stop-color="#40F59C" offset="100%"/></linearGradient></defs><g transform="translate(0 -1)" fill="none" fill-rule="evenodd"><mask id="b" fill="#fff"><use xlink:href="#a"/></mask><g opacity=".8" mask="url(#b)"><g transform="translate(-7 1)" fill-rule="nonzero"><path d="M278.788 131.569l-.173-.318-6.178 3.58-20.613-11.893 6.034-3.493-.173-.317-6.236 3.58-20.613-11.893 6.092-3.522-.173-.318-6.265 3.638-20.641-11.893 6.149-3.55-.173-.318-6.323 3.666-20.612-11.893 6.178-3.579-.173-.318-6.38 3.695-20.613-11.892 6.236-3.609-.173-.317-6.41 3.724-20.612-11.893 6.294-3.637-.174-.318-6.466 3.753-6.467-3.724-.173.318 6.293 3.637-20.612 11.892-6.438-3.694-.173.317 6.236 3.608-20.613 11.893-6.38-3.666-.173.318 6.178 3.579-20.613 11.892-6.322-3.637-.173.318 6.149 3.55-20.67 11.835-6.265-3.608-.173.318 6.091 3.521-20.612 11.893-6.236-3.58-.173.318 6.034 3.493-20.613 11.892-6.178-3.55-.173.317 5.976 3.464-5.976 3.464.173.318 6.178-3.58 20.613 11.893-6.034 3.493.173.317 6.207-3.608 20.612 11.892-6.09 3.522.172.318 6.265-3.637 20.612 11.892-6.149 3.55.173.318 6.323-3.666 20.612 11.893-6.178 3.579.173.318 6.38-3.695 20.613 11.892-6.236 3.609.173.317 6.41-3.724 20.612 11.893-6.294 3.637.174.318 6.466-3.753 6.467 3.724.173-.318-6.293-3.637 20.612-11.892 6.438 3.694.173-.317-6.236-3.608 20.613-11.893 6.38 3.666.173-.318-6.178-3.579 20.613-11.892 6.322 3.637.173-.318-6.033-3.493 20.612-11.892 6.265 3.608.173-.318-6.092-3.521 20.613-11.893 6.236 3.58.173-.318-6.034-3.493 20.613-11.892 6.178 3.55.173-.317-5.976-3.464 5.976-3.435zm-27.714-8.66l-20.613 11.893-20.612-11.893 20.612-11.892 20.613 11.892zM146.193 135.09l-20.613 11.893-20.612-11.893 20.612-11.892 20.613 11.892zm-20.238-12.123l20.613-11.893 20.583 11.893-20.612 11.893-20.584-11.893zm20.613 12.326l20.612 11.892-20.612 11.893-20.613-11.864 20.613-11.921zm.375-.203l20.613-11.892 20.612 11.892-20.612 11.893-20.613-11.893zm20.96-12.123l20.612-11.893 20.612 11.893-20.612 11.893-20.613-11.893zm-.376-.231l-20.613-11.893 20.613-11.892 20.612 11.892-20.612 11.893zm-20.988-12.095L125.927 98.75l20.612-11.893 20.612 11.893-20.612 11.892zm-.346.202l-20.613 11.922-20.612-11.893L125.58 98.98l20.613 11.863zm-20.988 12.124l-20.613 11.893-20.612-11.893 20.612-11.893 20.613 11.893zm-20.96 12.123l-20.612 11.893-20.612-11.893 20.612-11.892 20.613 11.892zm.347.231l20.613 11.893-20.613 11.893-20.583-11.893 20.583-11.893zm20.988 12.095l20.613 11.893L125.58 171.2l-20.612-11.892 20.612-11.893zm20.988 12.095l20.612 11.892-20.612 11.893-20.613-11.893 20.613-11.892zm.375-.202l20.613-11.893 20.612 11.893-20.612 11.892-20.613-11.892zm20.96-12.124l20.612-11.892 20.612 11.892-20.612 11.893-20.613-11.893zm20.987-12.123l20.612-11.893 20.613 11.893-20.613 11.892-20.612-11.892zm41.196-24.247l-20.613 11.892-20.612-11.864 20.612-11.892 20.613 11.864zM209.098 98.72l-20.583 11.893-20.613-11.893 20.613-11.893 20.583 11.893zM188.11 86.625l-20.612 11.893-20.613-11.893 20.613-11.892 20.612 11.892zm-41.57-23.987l20.612 11.893-20.612 11.892-20.612-11.892 20.612-11.893zm-20.988 12.124l20.613 11.892-20.584 11.893-20.612-11.893 20.583-11.892zm-20.959 12.094l20.613 11.893-20.613 11.892L83.98 98.75l20.612-11.893zM83.605 98.98l20.612 11.892-20.612 11.893-20.613-11.893L83.605 98.98zm-20.96 12.123l20.613 11.893-20.612 11.892-20.613-11.892 20.613-11.893zm-41.57 24.045l20.612-11.892 20.612 11.892-20.612 11.893-20.613-11.893zm20.958 12.095l20.613-11.893 20.612 11.893-20.612 11.892-20.613-11.892zm20.988 12.094l20.612-11.892 20.613 11.892-20.613 11.893-20.612-11.893zm20.988 12.095l20.612-11.892 20.613 11.892-20.613 11.893-20.612-11.893zm20.988 12.124l20.612-11.893 20.612 11.893-20.612 11.863-20.612-11.863zm41.6 23.987l-20.613-11.893 20.613-11.892 20.612 11.892-20.612 11.893zm20.959-12.124l-20.613-11.892 20.613-11.893 20.612 11.893-20.612 11.892zm20.987-12.123l-20.612-11.893 20.612-11.892 20.613 11.892-20.613 11.893zm20.96-12.124L188.89 159.28l20.612-11.893 20.613 11.893-20.613 11.892zm20.987-12.123l-20.612-11.893 20.612-11.892 20.612 11.892-20.612 11.893zm20.959-12.124l-20.613-11.892 20.613-11.893 20.612 11.893-20.612 11.892z" fill="url(#c)" opacity=".9"/><path d="M73.327 105.128l74.77 43.154c1.098.635 1.098 2.223 0 2.858l-27.078 15.645a4.302 4.302 0 0 1-4.33 0l-74.685-43.096c-1.097-.635-1.097-2.223 0-2.858l27.166-15.674a4.19 4.19 0 0 1 4.157-.029z" fill="url(#d)"/><path d="M189.496 166.438l-35.451-20.552h2.252l21.738-12.44-23.644-13.972h-46.71l-23.297-13.278-4.561-2.598c-2.31-1.212-3.84-1.53-7.795-1.53H0v69.941h189.496c8.978-.028 7.304-1.356 0-5.57z" fill-opacity=".16" fill="url(#e)" filter="url(#f)"/><path d="M49.745 151.833c-3.796-2.391-6.35-3.83-7.663-4.316-1.26-.466-3.055-.161-5.384.914 1.323-1.951 1.767-3.051 1.331-3.3l-6.357-3.638c-1.295-.753-2.242-.58-3.885 1.083L8.807 162.83l40.068-8.175c2.629-.657 3.692-1.198.87-2.822z" fill-opacity=".16" fill="url(#g)" opacity=".881" filter="url(#h)"/><path d="M121.797 124.582c-3.796-2.392-6.35-3.83-7.663-4.316-1.26-.467-3.055-.162-5.384.914 1.323-1.951 1.767-3.052 1.33-3.301l-6.356-3.637c-1.295-.754-2.242-.58-3.885 1.082L80.858 135.58l40.069-8.176c2.628-.657 3.692-1.198.87-2.821z" fill-opacity=".16" fill="url(#g)" opacity=".881" filter="url(#i)"/><path d="M73.327 103.483l74.77 43.154c1.098.635 1.098 2.222 0 2.857L121.02 165.14a4.302 4.302 0 0 1-4.33 0l-74.685-43.096c-1.097-.635-1.097-2.222 0-2.857l27.166-15.674c1.3-.78 2.858-.78 4.157-.03z" fill="url(#j)" opacity=".8"/><path d="M24.48.115l4.302 2.483c.174.086.174.346 0 .433l-4.359 2.54a.347.347 0 0 1-.404 0l-4.36-2.511c-.172-.087-.172-.347 0-.433L23.962.144c.145-.144.347-.144.52-.029zm6.439 3.695l4.301 2.483c.173.086.173.346 0 .433l-4.359 2.54a.347.347 0 0 1-.404 0l-4.36-2.511c-.173-.087-.173-.347 0-.433L30.4 3.839c.144-.144.346-.144.52-.029zm6.38 3.724l4.301 2.482c.173.087.173.347 0 .433l-4.359 2.54a.347.347 0 0 1-.404 0l-4.36-2.51c-.173-.087-.173-.347 0-.434l4.302-2.482c.144-.145.347-.145.52-.03zm6.438 3.695l4.301 2.482a.246.246 0 0 1 0 .433l-4.36 2.54a.347.347 0 0 1-.403 0l-4.36-2.511a.246.246 0 0 1 0-.433l4.302-2.482c.144-.145.346-.145.52-.03zm6.697 3.781l4.302 2.482c.173.087.173.347 0 .433l-4.36 2.54a.347.347 0 0 1-.404 0l-4.359-2.51c-.173-.087-.173-.347 0-.434l4.301-2.482c.145-.116.347-.116.52-.029zm6.438 3.695l4.301 2.482c.174.087.174.347 0 .433l-4.359 2.54a.347.347 0 0 1-.404 0l-4.36-2.51c-.172-.087-.172-.347 0-.434l4.302-2.482c.116-.145.347-.145.52-.03zm6.034 3.955l4.301 2.482c.173.086.173.346 0 .433l-4.36 2.54a.347.347 0 0 1-.403 0l-4.36-2.511c-.173-.087-.173-.347 0-.433l4.302-2.483a.485.485 0 0 1 .52-.029zm6.437 3.694l4.302 2.483c.173.086.173.346 0 .433l-4.36 2.54a.347.347 0 0 1-.404 0l-4.359-2.512c-.173-.086-.173-.346 0-.433l4.302-2.482c.144-.144.346-.144.52-.029zM83.2 34.523l4.302 2.483c.173.086.173.346 0 .433l-4.36 2.54a.347.347 0 0 1-.403 0l-4.36-2.512c-.173-.086-.173-.346 0-.433l4.302-2.482c.144-.144.346-.144.52-.029zm6.438 3.666l4.302 2.482c.173.087.173.347 0 .433l-4.36 2.54a.347.347 0 0 1-.404 0l-4.359-2.51c-.173-.087-.173-.347 0-.434l4.302-2.482c.144-.116.346-.116.52-.029zM16.83 4.618l4.302 2.483a.246.246 0 0 1 0 .433l-4.36 2.54a.347.347 0 0 1-.403 0l-4.36-2.511c-.173-.087-.173-.347 0-.433l4.302-2.483c.144-.144.346-.144.52-.029zm6.438 3.695l4.302 2.483c.173.086.173.346 0 .433l-4.36 2.54a.347.347 0 0 1-.403 0l-4.36-2.511c-.173-.087-.173-.347 0-.433l4.302-2.483c.115-.144.346-.144.52-.029zm6.38 3.724l4.302 2.482c.173.087.173.347 0 .433l-4.36 2.54a.347.347 0 0 1-.403 0l-4.36-2.51c-.173-.087-.173-.347 0-.434l4.302-2.482c.144-.145.346-.145.52-.03zm6.438 3.695l4.302 2.482c.173.087.173.347 0 .433l-4.36 2.54a.347.347 0 0 1-.404 0l-4.359-2.511a.246.246 0 0 1 0-.433l4.302-2.482c.115-.145.346-.145.52-.03zm6.698 3.781l4.301 2.482c.174.087.174.347 0 .433l-4.359 2.54a.347.347 0 0 1-.404 0l-4.36-2.51c-.172-.087-.172-.347 0-.434l4.302-2.482c.145-.116.347-.116.52-.029zm6.409 3.695l4.301 2.482c.173.087.173.347 0 .433l-4.359 2.54a.347.347 0 0 1-.404 0l-4.36-2.51c-.173-.087-.173-.347 0-.434l4.302-2.482c.144-.145.347-.145.52-.03zm6.062 3.954l4.302 2.483c.173.086.173.346 0 .433l-4.36 2.54a.347.347 0 0 1-.404 0l-4.359-2.511c-.173-.087-.173-.347 0-.433l4.302-2.483c.144-.144.346-.144.52-.029zm6.438 3.695l4.302 2.483c.173.086.173.346 0 .433l-4.36 2.54a.347.347 0 0 1-.404 0l-4.36-2.512c-.172-.086-.172-.346 0-.433l4.302-2.482c.145-.144.347-.144.52-.029zM10.97 7.91l10.74 6.176c.173.087.173.347 0 .433l-4.36 2.54a.347.347 0 0 1-.404 0L6.15 10.853c-.173-.086-.173-.346 0-.433l4.302-2.482c.144-.115.346-.115.52-.029zm12.818 7.418l4.302 2.482a.246.246 0 0 1 0 .433l-4.36 2.54a.347.347 0 0 1-.404 0l-4.36-2.511c-.172-.087-.172-.347 0-.433l4.302-2.483a.485.485 0 0 1 .52-.028zm6.438 3.694l4.301 2.483c.174.086.174.346 0 .433l-4.359 2.54a.347.347 0 0 1-.404 0l-4.36-2.511c-.173-.087-.173-.347 0-.433l4.302-2.483c.145-.115.347-.115.52-.029zm6.697 3.811l4.302 2.482a.246.246 0 0 1 0 .433l-4.36 2.54a.347.347 0 0 1-.403 0l-4.36-2.511c-.173-.087-.173-.347 0-.433l4.302-2.483c.144-.144.346-.144.52-.028zm6.438 3.694l4.302 2.483c.173.086.173.346 0 .433l-4.36 2.54a.347.347 0 0 1-.404 0l-4.359-2.511c-.173-.087-.173-.347 0-.433l4.302-2.483c.115-.144.346-.144.52-.029zm6.063 3.955l4.301 2.482c.173.087.173.347 0 .433l-4.359 2.54a.347.347 0 0 1-.404 0l-4.36-2.51c-.173-.087-.173-.347 0-.434l4.302-2.482c.116-.145.347-.145.52-.03zm6.409 3.666l4.301 2.482c.173.087.173.347 0 .433l-4.36 2.54a.347.347 0 0 1-.403 0l-4.36-2.51c-.173-.087-.173-.347 0-.434l4.302-2.482c.144-.116.346-.116.52-.03zM5.08 11.344l4.302 2.483c.174.086.174.346 0 .433L5.023 16.8a.347.347 0 0 1-.404 0l-4.36-2.512c-.172-.086-.172-.346 0-.433l4.302-2.482c.145-.144.347-.144.52-.029zm6.439 3.666l4.301 2.482c.173.087.173.347 0 .433l-4.359 2.54a.347.347 0 0 1-.404 0l-4.36-2.51c-.173-.087-.173-.347 0-.434L11 15.04c.144-.116.347-.116.52-.029zm6.38 3.753l4.301 2.482a.246.246 0 0 1 0 .433l-4.359 2.54a.347.347 0 0 1-.404 0l-4.36-2.511c-.173-.087-.173-.347 0-.433l4.302-2.483c.144-.144.347-.144.52-.028zm6.438 3.665l4.301 2.483a.246.246 0 0 1 0 .433l-4.36 2.54a.347.347 0 0 1-.403 0l-4.36-2.511c-.173-.087-.173-.347 0-.433l4.302-2.483c.144-.115.346-.115.52-.029zm6.697 3.811l4.302 2.482c.173.087.173.347 0 .433l-4.36 2.54a.347.347 0 0 1-.404 0l-4.359-2.511a.246.246 0 0 1 0-.433l4.302-2.482c.144-.145.346-.145.52-.03zm6.438 3.695l4.301 2.482a.245.245 0 0 1 0 .433l-4.359 2.54a.347.347 0 0 1-.404 0l-4.36-2.511c-.172-.087-.172-.347 0-.433l4.302-2.483c.116-.144.347-.144.52-.028zm6.062 3.954l4.302 2.483c.173.086.173.346 0 .432l-4.36 2.54a.347.347 0 0 1-.403 0l-4.36-2.51c-.173-.087-.173-.347 0-.434l4.302-2.482c.115-.144.346-.144.52-.029zm6.409 3.695l4.302 2.482c.173.087.173.347 0 .433l-4.36 2.54a.347.347 0 0 1-.404 0l-4.359-2.51c-.173-.087-.173-.347 0-.434l4.302-2.482c.144-.145.346-.145.52-.03zm19.4 5.022l4.302 2.483c.173.086.173.346 0 .433l-4.36 2.54a.347.347 0 0 1-.404 0l-4.359-2.511c-.173-.087-.173-.347 0-.433l4.302-2.483c.144-.144.346-.144.52-.029zm-11.951-.548l4.301 2.482c.173.087.173.347 0 .433l-4.36 2.54a.347.347 0 0 1-.403 0l-4.36-2.51c-.173-.087-.173-.347 0-.434l4.302-2.482c.144-.144.346-.144.52-.029zm6.062 3.955l4.302 2.482a.246.246 0 0 1 0 .433l-4.36 2.54a.347.347 0 0 1-.404 0l-4.36-2.511c-.172-.087-.172-.347 0-.433l4.302-2.483c.145-.144.347-.144.52-.028zm6.409 3.694l4.301 2.483c.174.086.174.346 0 .433l-4.359 2.54a.347.347 0 0 1-.404 0l-4.36-2.511c-.172-.087-.172-.347 0-.433l4.302-2.483c.145-.144.347-.144.52-.029zm5.687-10.68l4.302 2.483c.173.086.173.346 0 .433l-4.36 2.54a.347.347 0 0 1-.404 0L70.73 41.97c-.173-.086-.173-.346 0-.433l4.302-2.482c.144-.144.346-.144.52-.029zm1.357-8.284l4.301 2.482c.174.087.174.347 0 .433l-4.359 2.54a.347.347 0 0 1-.404 0l-4.36-2.511c-.172-.087-.172-.346 0-.433l4.302-2.482c.145-.116.347-.116.52-.03zm-7.65 4.503l4.301 2.482c.173.087.173.347 0 .433L69.2 40.7a.347.347 0 0 1-.404 0l-4.36-2.511a.246.246 0 0 1 0-.433l4.302-2.482c.144-.116.346-.116.52-.03zm12.731 7.447l4.301 2.482c.174.087.174.347 0 .433l-4.359 2.54a.347.347 0 0 1-.404 0l-4.36-2.51c-.172-.087-.172-.347 0-.434l4.302-2.482c.116-.116.347-.116.52-.029z" opacity=".519" transform="translate(47.345 106.225)" fill="url(#k)"/><g transform="translate(95.714)"><path d="M54.203 112.835L48.63 73.78l17.061 9.843 16.196 45.06a5.648 5.648 0 0 1-2.598 6.87l-15.07 8.313a7.828 7.828 0 0 1-7.794-.087l-20.324-11.748c-1.761-1.01-1.761-3.55 0-4.59l15.358-8.948c1.992-1.126 3.06-3.377 2.743-5.658z" fill="url(#l)"/><path d="M54.203 111.45L48.63 72.395l17.061 9.843 16.225 45.059a5.648 5.648 0 0 1-2.598 6.87l-15.07 8.313a7.828 7.828 0 0 1-7.795-.087L36.13 130.645c-1.761-1.01-1.761-3.55 0-4.59l15.358-8.948c1.963-1.125 3.031-3.377 2.714-5.657z" fill="url(#m)"/><path d="M48.66 72.395l17.061 9.843 16.196 45.059a5.648 5.648 0 0 1-2.598 6.87l-.838.462-25.173-29.559-4.648-32.675z" fill-opacity=".14" fill="#001A6C" filter="url(#n)"/><path d="M7.262 78.745l104.072 60.07c1.992 1.154 3.609-.059 3.609-2.743V67.603c0-2.656-1.617-5.744-3.609-6.899L7.262.606C5.27-.548 3.653.664 3.653 3.348v68.498c0 2.656 1.617 5.744 3.609 6.899z" fill="url(#o)" opacity=".574"/><path d="M5.125 79.986l104.073 60.07c1.992 1.154 3.609-.058 3.609-2.743V68.844c0-2.655-1.617-5.744-3.609-6.899L5.125 1.876C3.133.722 1.517 1.934 1.517 4.618v68.498c0 2.627 1.616 5.716 3.608 6.87z" fill="#252B4F"/><path d="M6.134 73.51l102.055 58.904c.824.482 1.478.085 1.478-.852V67.865c0-.937-.654-2.101-1.478-2.556L6.134 6.38c-.824-.484-1.477-.086-1.477.851v63.725c0 .937.653 2.101 1.477 2.556z" fill="url(#p)"/><ellipse fill="#E4E9F7" opacity=".9" transform="rotate(-30.001 55.612 105.346)" cx="55.612" cy="105.346" rx="1.233" ry="1.849"/><path d="M1.607 71.763l103.69 61.072c.875.509 1.58.085 1.58-.905V64.001c0-.989-.705-2.232-1.58-2.713L1.58.216C.705-.292 0 .131 0 1.121V69.05c.028.989.733 2.232 1.607 2.713z" fill="url(#q)" opacity=".3" transform="translate(0 6.412)"/><path d="M58.442 33.582L1.583.216C.707-.292 0 .131 0 1.119v67.85c0 .988.707 2.23 1.583 2.71l56.859-38.097z" fill="url(#r)" opacity=".531" transform="translate(0 6.412)"/><g opacity=".1" fill="#12314F"><path d="M2.54 1.876c.231.404.347.837.347 1.3 0 .519-.116.836-.347.98-.23.145-.548.116-.952-.144l-.578-.346v1.183l-.837-.49V.058l1.415.808c.404.289.722.606.952 1.01zm-.606 1.3c.087-.059.145-.203.145-.405s-.058-.404-.145-.577c-.086-.173-.23-.289-.404-.404l-.548-.318V2.8l.548.317c.173.087.318.116.404.058z" filter="url(#s)" transform="translate(20.274 26.668)"/><path d="M5.687 7.592l-.23-.895-1.386-.808-.231.635-.866-.491L4.359 2.51l.866.491 1.357 5.08-.895-.49zM4.33 5.167l.895.52-.433-1.79-.462 1.27z" filter="url(#t)" transform="translate(20.274 26.668)"/><path filter="url(#u)" d="M9.729 5.629L8.574 7.88v1.386l-.837-.49V7.417L6.553 3.781l.837.491.78 2.28.75-1.414z" transform="translate(20.274 26.668)"/><path filter="url(#v)" d="M10.277 5.917l.924.52.924 3.089.924-1.992.924.52v4.3l-.751-.433V9.18l-.837 1.819-.549-.318L11 7.91v2.741l-.75-.433v-4.3z" transform="translate(20.274 26.668)"/><path filter="url(#w)" d="M14.839 8.573l2.54 1.472v.895l-1.703-.981v.808l1.53.895v.894l-1.53-.894v.808l1.76 1.01v.895l-2.597-1.501z" transform="translate(20.274 26.668)"/><path filter="url(#x)" d="M20.41 11.806l.78.462v4.3l-.75-.432-1.473-3.435v2.569l-.78-.462v-4.301l.751.433 1.472 3.435z" transform="translate(20.274 26.668)"/><path filter="url(#y)" d="M21.796 12.585l2.772 1.588v.924l-.982-.549v3.377l-.837-.49v-3.378l-.953-.548z" transform="translate(20.274 26.668)"/><path filter="url(#z)" d="M26.444 15.27l.837.49v3.349l1.357.78v.952l-2.223-1.27V15.27z" transform="translate(20.274 26.668)"/><path filter="url(#A)" d="M29.302 16.915l.837.49v4.302l-.837-.49z" transform="translate(20.274 26.668)"/><path filter="url(#B)" d="M33.228 19.167l.78.462v4.3l-.75-.432-1.473-3.435v2.569l-.78-.462v-4.272l.75.433 1.473 3.435z" transform="translate(20.274 26.668)"/><path filter="url(#C)" d="M37.992 26.239l-1.01-.578-.838-2.164-.404.375v1.068l-.837-.49v-4.302l.837.49v1.877l1.212-1.183.982.577-1.213 1.097z" transform="translate(20.274 26.668)"/><path d="M42.004 26.354l.722.433v1.703a1.142 1.142 0 0 1-.635.03 1.678 1.678 0 0 1-.722-.26 3.848 3.848 0 0 1-.895-.809c-.288-.346-.462-.722-.606-1.155a4.08 4.08 0 0 1-.23-1.27c0-.404.086-.75.23-1.01a.817.817 0 0 1 .635-.433c.26-.029.578.029.924.231.231.144.49.346.722.577.23.26.433.52.606.809l-.49.52a4.125 4.125 0 0 0-.405-.578c-.144-.173-.289-.318-.462-.375-.173-.087-.317-.145-.462-.116a.416.416 0 0 0-.317.26c-.087.144-.116.346-.116.577 0 .231.03.49.116.722.086.23.202.462.346.664.144.202.289.346.462.433.173.086.346.144.549.115l.028-1.068z" filter="url(#D)" transform="translate(20.274 26.668)"/></g><path d="M22.414 27.743c.23.404.346.837.346 1.299 0 .52-.115.837-.346.981-.231.145-.549.116-.953-.144l-.577-.346v1.183l-.837-.49v-4.301l1.414.808c.404.288.722.606.953 1.01zm-.606 1.299c.086-.058.144-.202.144-.404s-.058-.404-.144-.577c-.087-.174-.231-.289-.404-.405l-.549-.317v1.328l.549.317c.173.087.317.116.404.058zm3.752 4.416l-.23-.894-1.386-.809-.23.635-.867-.49 1.386-3.522.866.49 1.357 5.081-.895-.49zm-1.356-2.424l.895.52-.433-1.79-.462 1.27zm5.398.462l-1.154 2.251v1.386l-.838-.491v-1.357l-1.183-3.637.837.49.78 2.281.75-1.414zm.548.288l.925.52.923 3.088.924-1.991.924.52v4.3l-.75-.433v-2.742l-.838 1.819-.548-.318-.837-2.771v2.742l-.751-.433v-4.3zm4.562 2.656l2.54 1.472v.895l-1.703-.982v.809l1.53.894v.895l-1.53-.895v.809l1.761 1.01v.895l-2.598-1.501zm5.572 3.233l.78.462v4.3l-.751-.432-1.473-3.435v2.569l-.779-.462v-4.301l.75.433 1.473 3.435zm1.386.779l2.771 1.588v.923l-.982-.548v3.377l-.837-.49v-3.378l-.952-.548zm4.648 2.685l.837.49v3.349l1.357.78v.952l-2.223-1.27v-4.301zm2.858 1.645l.837.49v4.302l-.837-.491zm3.926 2.252l.78.461v4.301l-.751-.433-1.473-3.435v2.57l-.78-.462v-4.273l.751.433 1.473 3.435zm4.763 7.072l-1.01-.578-.838-2.165-.404.376v1.068l-.837-.491v-4.301l.837.49v1.877l1.213-1.184.981.578-1.212 1.097zm4.013.115l.722.433v1.703a1.142 1.142 0 0 1-.636.029 1.678 1.678 0 0 1-.721-.26 3.848 3.848 0 0 1-.895-.808c-.289-.346-.462-.722-.606-1.155a4.08 4.08 0 0 1-.231-1.27c0-.404.086-.75.23-1.01a.817.817 0 0 1 .636-.433c.26-.029.577.029.924.23.23.145.49.347.721.578.231.26.433.52.606.808l-.49.52a4.125 4.125 0 0 0-.404-.577c-.145-.174-.29-.318-.462-.376-.174-.086-.318-.144-.462-.115a.416.416 0 0 0-.318.26c-.086.144-.115.346-.115.577 0 .231.029.49.115.722.087.23.202.462.347.664.144.202.288.346.462.433.173.086.346.144.548.115l.029-1.068z" fill="#FFF"/></g><path d="M156.643 153.968l22.576 13.336c1.097.635 1.097 2.223 0 2.858l-27.08 15.645a4.302 4.302 0 0 1-4.33 0L125.32 172.53c-1.097-.635-1.097-2.223 0-2.858l27.166-15.674a4.055 4.055 0 0 1 4.157-.029z" fill="url(#E)"/><path d="M156.643 152.38l22.576 13.337c1.097.635 1.097 2.222 0 2.857l-27.08 15.645a4.302 4.302 0 0 1-4.33 0l-22.489-13.278c-1.097-.635-1.097-2.222 0-2.857l27.166-15.674a4.19 4.19 0 0 1 4.157-.03z" fill="#53D5FF" opacity=".8"/><path d="M152.284 160.925h-14.579l-12.385 7.13c-1.097.635-1.097 2.222 0 2.858l8.401 4.964h18.534v-14.952h.029z" fill-opacity=".16" fill="url(#F)" filter="url(#G)"/><path d="M162.042 165.486l-8.892-5.138a1.511 1.511 0 0 0-1.559 0l-8.863 5.138h-3.608v2.54c0 .23.115.462.346.606l12.327 7.101c.375.202.808.202 1.184 0l12.327-7.13c.23-.144.346-.346.346-.577v-2.54h-3.608z" fill="url(#H)" opacity=".6"/><path d="M153.15 157.75l12.125 7.014c.49.289.49.982 0 1.241l-12.327 7.13a1.231 1.231 0 0 1-1.184 0l-12.327-7.1c-.49-.29-.49-.982 0-1.242l12.125-7.014a1.636 1.636 0 0 1 1.588-.03z" fill="#FFF"/><path d="M139.437 164.793c-.49.289-.49.981 0 1.241l2.916 1.674h10.075v-4.993h-9.411l-3.58 2.078z" fill-opacity=".16" fill="url(#F)" filter="url(#I)"/><ellipse fill="url(#J)" opacity=".7" cx="152.428" cy="164.966" rx="7.16" ry="3.579"/><path d="M146.568 161.964v2.973c0 1.53 2.627 2.771 5.86 2.771 3.234 0 5.86-1.24 5.86-2.77v-2.974h-11.72z" fill="url(#K)"/><ellipse fill="url(#L)" cx="152.428" cy="161.964" rx="5.86" ry="2.771"/><path fill="url(#M)" d="M43.765 6.206l-2.829 12.499L2.685 31.059z" transform="translate(11.817 115.078)"/><path d="M61.173 16.222L49.481 9.497 2.685 31.059 43.737 6.177 34.18.78c-1.934-1.125-3.349-.866-5.803 1.617L.028 32.646l59.846-12.21c3.926-.98 5.514-1.789 1.3-4.214z" fill="url(#N)" transform="translate(11.817 115.078)"/><path d="M1.443.346L18.967 10.45c.577.347 1.299 1.588 1.299 2.252v11.373c0 .924-.49 1.212-1.3.75l-7.014-4.04-1.761 2.106-1.732-4.127-7.016-4.042C.866 14.375.144 13.134.144 12.47V1.097C.115.173.635-.115 1.444.347z" fill="url(#O)" opacity=".932" transform="translate(143.19 133.07)"/><path d="M149.476 141.553l-.318.722c-.346-.491-.808-.953-1.097-1.097-.23-.116-.375-.116-.375.115 0 .78 1.79 1.386 1.79 3.002 0 .895-.606 1.04-1.357.606-.577-.317-1.155-.952-1.559-1.616l.347-.693c.346.606.866 1.184 1.24 1.386.26.144.434.115.434-.145 0-.808-1.79-1.356-1.79-2.973 0-.837.549-1.068 1.357-.577.462.289.981.78 1.328 1.27zm1.328 1.241v.895l1.617.924v.895l-1.617-.924v.924l1.847 1.068v.894l-2.713-1.558v-4.532l2.656 1.53v.894zm4.792 6.408l-1.559-3.694v2.8l-.808-.462v-4.561l.75.433 1.56 3.695v-2.8l.808.462v4.56zm3.031-1.876v3.608l-.866-.49v-3.609l-1.01-.577v-.953l2.916 1.675v.923z" fill="#FFF"/><path d="M4.748 1.031v25.453c0 1.264.69 2.413 1.781 3.045l33.5 18.846c.432.23.977.086 1.207-.345a.81.81 0 0 0 .115-.431V22.146c0-1.264-.69-2.413-1.781-3.045L6.07.256C5.637.026 5.091.169 4.862.6a.81.81 0 0 0-.115.431z" fill-opacity=".273" fill="#043052" opacity=".3" filter="url(#P)" transform="translate(130.088 46.314)"/><path d="M132.368 48.162v25.585c0 1.27.693 2.426 1.79 3.061l33.675 18.943c.433.231.982.087 1.213-.346a.815.815 0 0 0 .115-.433V69.387c0-1.271-.693-2.426-1.79-3.061l-33.675-18.944c-.433-.23-.982-.086-1.213.347a.815.815 0 0 0-.115.433z" fill="#FFF" opacity=".2"/><path d="M130.437 49.219v25.13a3.48 3.48 0 0 0 1.758 3.006L165.27 95.96c.426.227.965.085 1.192-.34a.8.8 0 0 0 .113-.426v-25.13a3.48 3.48 0 0 0-1.758-3.006L131.74 48.453c-.425-.227-.964-.085-1.19.34a.8.8 0 0 0-.114.426z" fill="#FFF"/><path d="M6.38 27.322l24.048 13.654a.662.662 0 0 0 .895-.26c.058-.087.086.198.086.083a1.93 1.93 0 0 0-.981-1.674L6.38 25.47a.662.662 0 0 0-.895.26c0 .693.289 1.245.895 1.591z" fill="url(#Q)" transform="translate(130.088 46.314)"/><path d="M6.38 27.322l12.616 7.159v-1.86L6.38 25.47a.662.662 0 0 0-.895.26c0 .693.289 1.245.895 1.591z" fill="url(#R)" transform="translate(130.088 46.314)"/><path d="M9.007 18.89v.087c0 .635.347 1.24.895 1.558l15.474 8.776c.317.173.75.057.924-.26a.557.557 0 0 0 .086-.289 1.685 1.685 0 0 0-.866-1.616L9.99 18.313a.662.662 0 0 0-.895.26.582.582 0 0 0-.087.317zM5.4 12.626c0 .693.375 1.328.981 1.674l24.048 13.654a.662.662 0 0 0 .895-.26.582.582 0 0 0 .086-.317 1.93 1.93 0 0 0-.981-1.675L6.38 12.05a.662.662 0 0 0-.895.26.582.582 0 0 0-.086.317z" fill="url(#S)" transform="translate(130.088 46.314)"/><path fill="url(#M)" d="M43.939 6.09l-2.83 12.5L2.858 30.943z" transform="translate(84.16 78.256)"/><path d="M61.347 16.107L49.655 9.38 2.858 30.944 43.91 6.062 34.354.664C32.42-.462 31.005-.202 28.551 2.28L.202 32.531l59.846-12.21c3.926-.981 5.513-1.79 1.299-4.214z" fill="url(#N)" transform="translate(84.16 78.256)"/></g></g></g></svg>