<svg width="150" height="176" viewBox="0 0 150 176" xmlns="http://www.w3.org/2000/svg" xmlns:xlink="http://www.w3.org/1999/xlink"><defs><path id="a" d="M0 0h200v200H0z"/><path id="c" d="M0 0h325v248H0z"/><linearGradient x1="-2.436%" y1="73.23%" x2="44.78%" y2="73.23%" id="e"><stop stop-color="#7EDEFF" stop-opacity=".032" offset="0%"/><stop stop-color="#0041B1" stop-opacity=".41" offset="99.418%"/></linearGradient><filter x="-4.2%" y="-8%" width="108.5%" height="115.9%" filterUnits="objectBoundingBox" id="f"><feGaussianBlur stdDeviation="1.2" in="SourceGraphic"/></filter><linearGradient x1="83.414%" y1="32.977%" x2="28.394%" y2="32.977%" id="g"><stop stop-color="#7EDEFF" stop-opacity=".032" offset="0%"/><stop stop-color="#0041B1" stop-opacity=".593" offset="100%"/></linearGradient><filter x="-2.8%" y="-7.7%" width="105.5%" height="115.4%" filterUnits="objectBoundingBox" id="h"><feGaussianBlur stdDeviation="1.2" in="SourceGraphic"/></filter><linearGradient x1="87.093%" y1="49.32%" x2="-16.035%" y2="68.996%" id="i"><stop stop-color="#FFF" offset="0%"/><stop stop-color="#4A5ABA" offset="99.88%"/></linearGradient><linearGradient x1="19.197%" y1="93.539%" x2="99.532%" y2="37.91%" id="j"><stop stop-color="#2756C1" offset="0%"/><stop stop-color="#0098E9" offset="100%"/></linearGradient><linearGradient x1="1537.653%" y1="37.29%" x2="97.439%" y2="49.194%" id="k"><stop stop-color="#FFF" offset="0%"/><stop stop-color="#245BB3" offset="98.529%"/></linearGradient><linearGradient x1="79.137%" y1="50%" x2="33.217%" y2="109.971%" id="l"><stop stop-color="#FFF" offset="0%"/><stop stop-color="#0098E9" offset="100%"/></linearGradient><linearGradient x1="-9.071%" y1="9.637%" x2="68.43%" y2="50%" id="m"><stop stop-color="#2756C1" offset="0%"/><stop stop-color="#9EDDFF" offset="100%"/></linearGradient><linearGradient x1="1.842%" y1="78.658%" x2="102.654%" y2="1.639%" id="n"><stop stop-color="#225ADC" offset="0%"/><stop stop-color="#00A6FF" offset="100%"/></linearGradient><linearGradient x1="312.445%" y1="50%" x2="268.7%" y2="50%" id="o"><stop stop-color="#2165FF" offset="0%"/><stop stop-color="#2FB7FF" offset="100%"/></linearGradient><linearGradient x1="73.588%" y1="25.411%" x2="-37.282%" y2="136.249%" id="p"><stop stop-color="#FFF" offset="0%"/><stop stop-color="#4A5ABA" offset="99.88%"/></linearGradient><linearGradient x1="48.829%" y1="71.696%" x2="42.566%" y2="35.64%" id="q"><stop stop-color="#7CE2FF" offset="0%"/><stop stop-color="#008EFF" offset="100%"/></linearGradient><linearGradient x1="5.499%" y1="96.05%" x2="78.673%" y2="26.672%" id="r"><stop stop-color="#FFF" offset="0%"/><stop stop-color="#1D78DA" offset="100%"/></linearGradient><filter x="-5.1%" y="-5.7%" width="110.2%" height="111.3%" filterUnits="objectBoundingBox" id="s"><feGaussianBlur stdDeviation="1.44" in="SourceGraphic"/></filter><linearGradient x1="98.596%" y1="33.141%" x2="-11.949%" y2="56.23%" id="t"><stop stop-color="#FFF" offset="0%"/><stop stop-color="#6CE8AB" offset="100%"/></linearGradient><linearGradient x1="187.536%" y1="50%" x2="188.216%" y2="50%" id="u"><stop stop-color="#0099CE" offset="0%"/><stop stop-color="#6CE8AB" offset="100%"/></linearGradient><linearGradient x1="0%" y1="50%" x2="135.194%" y2="-66.08%" id="v"><stop stop-color="#1ABAD1" offset="0%"/><stop stop-color="#3FF49D" offset="100%"/><stop stop-color="#40F59C" offset="100%"/></linearGradient><linearGradient x1="74.796%" y1="62.517%" x2="188.201%" y2="119.767%" id="w"><stop stop-color="#2D9AC0" offset="0%"/><stop stop-color="#6CE8AB" offset="100%"/></linearGradient><linearGradient x1="0%" y1="50%" y2="50%" id="x"><stop stop-color="#1ABAD1" offset="0%"/><stop stop-color="#40F59C" offset="100%"/></linearGradient><linearGradient x1="71.043%" y1="-67.907%" x2="50%" y2="84.083%" id="y"><stop stop-color="#FFDE64" offset="0%"/><stop stop-color="#F68383" offset="100%"/></linearGradient><linearGradient x1="18.567%" y1="73.23%" x2="71.526%" y2="73.23%" id="z"><stop stop-color="#7EDEFF" stop-opacity=".032" offset="0%"/><stop stop-color="#182442" stop-opacity=".455" offset="100%"/></linearGradient><filter x="-2%" y="-12.4%" width="104.1%" height="124.9%" filterUnits="objectBoundingBox" id="A"><feGaussianBlur stdDeviation=".44" in="SourceGraphic"/></filter><linearGradient x1="102.112%" y1="4.291%" x2="76.71%" y2="50%" id="B"><stop stop-color="#FFC6C6" offset="0%"/><stop stop-color="#DF5757" offset="100%"/></linearGradient><linearGradient x1="110.881%" y1="0%" x2="48.693%" y2="83.677%" id="C"><stop stop-color="#FFAFAF" offset="0%"/><stop stop-color="#FF5C5C" offset="100%"/></linearGradient><linearGradient x1="50%" y1="0%" x2="50%" y2="100%" id="D"><stop stop-color="#26F3BA" offset="0%"/><stop stop-color="#02CE6C" offset="100%"/></linearGradient><linearGradient x1="50%" y1="0%" x2="50%" y2="100%" id="E"><stop stop-color="#FFF" offset="0%"/><stop stop-color="#FFF" stop-opacity=".188" offset="100%"/></linearGradient></defs><g fill="none" fill-rule="evenodd"><mask id="b" fill="#fff"><use xlink:href="#a"/></mask><g opacity=".8" mask="url(#b)"><g transform="translate(-48 -15)"><mask id="d" fill="#fff"><use xlink:href="#c"/></mask><g fill-rule="nonzero" mask="url(#d)"><path d="M321.517 142.35l-.219-.377-7.273 4.2-24.299-14.003 7.115-4.109-.218-.376-7.333 4.234-24.298-14.003 7.174-4.142-.218-.377-7.392 4.268-24.298-14.002 7.233-4.178-.218-.377-7.452 4.303-24.298-14.002 7.292-4.212-.218-.377-7.51 4.337-24.3-14.003 7.353-4.245-.218-.377-7.57 4.37L166.054 60.9l7.411-4.28-.218-.377-7.63 4.406-7.634-4.4-.218.378 7.416 4.273-24.287 14.024-7.574-4.364-.217.377 7.355 4.239L116.173 89.2l-7.515-4.33-.217.377 7.296 4.205-24.285 14.024-7.456-4.296-.217.377 7.237 4.17-24.287 14.024-7.395-4.262-.218.378 7.178 4.136-24.285 14.023-7.336-4.228-.217.378 7.118 4.102-24.286 14.024-7.277-4.193-.217.377 7.058 4.068-7.056 4.074.219.377 7.273-4.2 24.299 14.003-7.115 4.108.218.377 7.333-4.234L66.32 175.06l-7.174 4.143.218.376 7.392-4.268 24.299 14.003-7.233 4.177.218.376 7.452-4.303 24.299 14.004-7.294 4.211.219.377 7.51-4.337 24.299 14.002-7.352 4.246.218.377 7.57-4.372 24.299 14.003-7.412 4.28.218.377 7.63-4.406 7.634 4.399.217-.377-7.415-4.274 24.286-14.024 7.574 4.365.218-.378-7.356-4.239 24.287-14.024 7.515 4.33.217-.376-7.296-4.205 24.286-14.025 7.455 4.296.218-.377-7.237-4.17 24.286-14.025 7.395 4.262.218-.377-7.178-4.136 24.287-14.025 7.336 4.228.218-.377-7.119-4.102 24.286-14.024 7.277 4.193.218-.377-7.06-4.069 7.053-4.07zm-32.661-10.18l-24.287 14.024-24.298-14.003 24.286-14.024 24.299 14.003zM165.22 146.489l-24.286 14.024-24.299-14.002 24.287-14.025 24.298 14.003zm-23.862-14.255l24.287-14.024 24.298 14.003-24.286 14.024-24.299-14.003zm24.299 14.507l24.298 14.002-24.286 14.024-24.299-14.002 24.287-14.024zm.436-.253l24.286-14.024 24.299 14.003-24.287 14.024-24.298-14.003zm24.721-14.275l24.287-14.025 24.298 14.003-24.286 14.024-24.299-14.002zm-.436-.251l-24.298-14.003 24.286-14.024 24.298 14.003-24.286 14.024zm-24.734-14.254l-24.298-14.003 24.285-14.024 24.299 14.003-24.286 14.024zm-.436.251l-24.286 14.024-24.298-14.002 24.286-14.024 24.298 14.002zm-24.722 14.276L116.2 146.259l-24.298-14.003 24.286-14.024 24.298 14.003zm-24.722 14.276l-24.286 14.024-24.298-14.003 24.286-14.024 24.298 14.003zm.436.251l24.3 14.003-24.287 14.024-24.299-14.003 24.286-14.024zm24.735 14.254l24.299 14.003-24.287 14.024-24.299-14.003 24.287-14.024zm24.734 14.254l24.298 14.003-24.286 14.024-24.298-14.003 24.286-14.024zm.436-.251l24.286-14.024 24.299 14.002-24.287 14.024-24.298-14.002zm24.722-14.277l24.286-14.024 24.298 14.003-24.286 14.024-24.298-14.003zm24.722-14.275l24.287-14.024 24.298 14.002-24.286 14.024-24.299-14.002zm48.572-28.55l-24.286 14.023-24.298-14.002 24.286-14.024 24.298 14.002zm-24.735-14.255L215.1 117.686l-24.298-14.002 24.286-14.025 24.298 14.003zm-24.734-14.254l-24.286 14.024-24.298-14.003 24.286-14.024 24.298 14.003zM165.62 61.15l24.298 14.003-24.286 14.024-24.298-14.003L165.62 61.15zm-24.722 14.276l24.298 14.002-24.285 14.025L116.61 89.45l24.286-14.024zm-24.722 14.275l24.299 14.003-24.286 14.024-24.298-14.002 24.285-14.025zm-24.722 14.276l24.298 14.003-24.286 14.024-24.3-14.003 24.288-14.024zm-24.722 14.276l24.3 14.002-24.287 14.025-24.298-14.003 24.285-14.024zm-49.008 28.3l24.286-14.025 24.3 14.003-24.287 14.024-24.299-14.002zm24.734 14.254l24.287-14.024 24.298 14.002-24.286 14.024-24.299-14.002zm24.735 14.254l24.286-14.024 24.299 14.002-24.286 14.024-24.3-14.002zm24.735 14.254l24.286-14.024 24.299 14.002-24.286 14.025-24.3-14.003zm24.734 14.254l24.286-14.024 24.299 14.003-24.287 14.024-24.298-14.003zm49.033 28.257l-24.299-14.003 24.287-14.025 24.298 14.004-24.286 14.024zm24.722-14.276l-24.3-14.003 24.287-14.024 24.3 14.003-24.287 14.024zm24.722-14.276l-24.299-14.003 24.287-14.024 24.299 14.003-24.287 14.024zM239.86 189l-24.299-14.003 24.287-14.024 24.298 14.002L239.86 189zm24.722-14.276l-24.3-14.002 24.287-14.024 24.3 14.002-24.287 14.024zm24.722-14.275l-24.299-14.003 24.287-14.024 24.299 14.003-24.287 14.024z" fill="#C4D6EE" opacity=".3"/><path fill-opacity=".16" fill="url(#e)" filter="url(#f)" d="M170.558 115.514h84.93v45.245h-84.93z" transform="translate(8.812 14.195)"/><path fill-opacity=".16" fill="url(#g)" filter="url(#h)" transform="matrix(-1 0 0 1 297.576 14.195)" d="M79 59h130.763l-79.488 46.634H79z"/><path fill="url(#i)" d="M72.255 73.463v9.952l-1.458.712-8.832-5.997 2.927-.493 5.43 3.079v-9.12z" transform="matrix(-1 0 0 1 234.812 14.195)"/><path d="M46.999 60.388v10.016l23.798 13.723V74.118L47 60.388zm22.129 20.866L48.668 69.48v-5.9l20.46 11.8v5.873z" fill="url(#j)" transform="matrix(-1 0 0 1 234.812 14.195)"/><path fill="url(#k)" d="M1.954 4.854v29.941l1.36-.8V6.029z" transform="matrix(-1 0 0 1 153.233 29.533)"/><path fill="url(#l)" d="M26.472 21.613l-1.545.88L.222 1.065 1.848.13z" transform="matrix(-1 0 0 1 153.233 29.533)"/><path fill="url(#m)" d="M1.954 34.795l21.24 12.25v-1.656L3.315 33.995z" transform="matrix(-1 0 0 1 153.233 29.533)"/><path d="M.222 1.065v34.69l24.705 14.277v-27.54L.222 1.066zm22.973 22.443v5.123L1.955 16.356V4.855l21.24 18.653zM1.955 34.795v-6.137l21.24 12.276v6.11L1.955 34.796z" fill="url(#j)" transform="matrix(-1 0 0 1 153.233 29.533)"/><path fill="url(#m)" d="M23.195 28.63v-1.547L3.313 15.582l-1.359.8z" transform="matrix(-1 0 0 1 153.233 29.533)"/><path d="M4.56 70.595V48.74a3.04 3.04 0 0 1 1.518-2.615L80.466 2.76c.693-.374 1.52.107 1.52.88v21.91l-77.4 45.044-.027.001z" fill="url(#n)" transform="matrix(-1 0 0 1 234.09 25.195)"/><path d="M81.799 3l-1.306-.24L6.105 46.126a3.038 3.038 0 0 0-1.52 2.615v21.855L.03 68.06V46.898c0-1.788.96-3.442 2.505-4.35L73.804 1a5.031 5.031 0 0 1 4.984-.027l1.652.934a6.01 6.01 0 0 1 1.36 1.094z" fill="url(#o)" transform="matrix(-1 0 0 1 234.09 25.195)"/><path d="M173.72 15.197l30.803 17.998c.938.551 1.72 1.811 1.72 2.914v12.128c0 1.103-.782 1.497-1.72 1.024l-15.675-9.156c-1.867 3.217-1.607 3.741-2.23.273a17.796 17.796 0 0 0-.427-1.77l-12.472-7.345c-.938-.551-1.719-1.811-1.719-2.914V16.22c.078-1.102.781-1.496 1.72-1.023z" fill="#63CC31" opacity=".9"/><path d="M196.79 34.918l-1.265-.743-.01 3.641 1.264.744c.937.55 1.493.198 1.496-.966.004-1.16-.546-2.123-1.486-2.676m-.48 2.616l.006-2.147.368.216c.5.295.79.837.788 1.52-.002.727-.279.93-.794.627l-.368-.216m-2.326-4.267l-.792-.465-.01 3.641.792.466.01-3.642m-3.208-1.887l-.967-.569-1.055 3.027.805.474.2-.684 1.017.598.195.916.84.495-1.035-4.257m-.862 1.671l.352-1.198.017.01.34 1.606-.709-.418m-3.205-4.063l-1.346-.792-.01 3.641.79.465.003-1.068.509.299c.691.407 1.17.18 1.171-.596a2.315 2.315 0 0 0-1.117-1.95m-.561 1.55l.003-1.168.347.205c.333.195.53.516.529.895-.002.38-.2.468-.537.27l-.342-.202m-6.85-3.951l1.518 2.7 2.496-1.453-.513-.898-1.79 1.106-1.032-1.85z" fill="#FFF"/><path fill="url(#p)" d="M106.506 51.974l-80.09 46.62v-1.975l78.358-45.66z" transform="matrix(-1 0 0 1 234.812 14.195)"/><path d="M84.013 35.919l17.563 10.087a5.552 5.552 0 0 1 2.798 4.83v.338L26.389 96.619 3.549 86.435v-3.683a5.552 5.552 0 0 1 2.798-4.83l72.176-41.976a5.52 5.52 0 0 1 5.49-.027z" fill="url(#q)" transform="matrix(-1 0 0 1 234.812 14.195)"/><path d="M108.052.231v27.512l-1.546.908v-8.646l-80.09 46.592v8.753l-1.546.881v-27.54l1.545-.88v14.063l80.09-46.62V1.113z" transform="matrix(-1 0 0 1 234.812 50.915)" fill="url(#r)"/></g><g mask="url(#d)" fill-rule="nonzero"><path fill-opacity=".16" fill="url(#e)" filter="url(#s)" d="M.278 19.212h84.376v76.453H.278z" transform="translate(36 88.636)"/><path fill="url(#t)" d="M84.709 8.6l61.148 35.659L84.71 79.777 23.45 44.262z" transform="translate(36 88.636)"/><path fill="url(#u)" d="M84.654 95.665L23.45 60.149V44.262l61.204 35.515z" transform="translate(36 88.636)"/><path fill="url(#v)" d="M84.654 95.665l61.203-35.516V44.262L84.654 79.777z" transform="translate(36 88.636)"/><path fill="url(#w)" d="M84.654 73.242L23.45 37.727v-1.2L84.654 72.04z" transform="translate(36 88.636)"/><path fill="url(#x)" d="M84.709.937l61.148 35.66L84.71 72.113 23.449 36.6z" transform="translate(36 88.636)"/><path fill="#FFF" d="M120.654 160.678l61.204-35.516v1.201l-61.204 35.516z"/><path d="M117.908 135.662c4.14 2.432 4.487 5.013 2.764 4.015l-20.35-11.496 4.364-2.12" fill="#0A7194"/><path d="M141.396 125.227l-.615-.44a16.22 16.22 0 0 0-1.7-.991l-18.409-10.735-20.831 12.127 17.731 10.28c.066.038 4.139 2.403 4.02 4.275l21.307-11.894a.347.347 0 0 0 .14-.079c.327-.312-.051-1.321-1.643-2.543z" fill="#FFF"/><path fill="#49DAB5" opacity=".5" d="M121.258 116.397l-4.174 2.488 17.024 9.525 3.996-2.324z"/><path fill="#E1EAF5" d="M115.402 119.93l-9.444 5.63 16.588 9.62 9.638-5.603z"/><path d="M32.483.196L1.717 18.15C.781 18.699 0 19.956 0 21.056v12.097c0 1.1.78 1.493 1.717 1.022l15.656-9.134c1.865 3.21 1.605 3.733 2.227.273.092-.512.235-1.1.427-1.765l12.456-7.327c.937-.55 1.717-1.807 1.717-2.907V1.217c-.078-1.1-.78-1.492-1.717-1.02z" fill="url(#y)" transform="matrix(-1 0 0 1 148.347 89.787)"/><path d="M124.626 102.618c-.002.718.47 1.519 1.088 1.876.44.254.747.179.857-.125l.013.008c.035.814-.223 1.126-.628.892a1.037 1.037 0 0 1-.475-.62l-.816-.472c.082.681.608 1.435 1.276 1.82.898.52 1.44.07 1.444-1.171a3.633 3.633 0 0 0-.333-1.555 2.723 2.723 0 0 0-1.1-1.245c-.763-.44-1.323-.202-1.326.592zm.81.439c0-.33.233-.456.525-.288.29.167.515.558.514.89 0 .33-.228.45-.52.281-.294-.17-.52-.55-.519-.883zm-4.185-2.388c-.002.718.47 1.518 1.088 1.875.44.254.746.179.857-.125l.014.008c.034.815-.226 1.126-.629.893a1.043 1.043 0 0 1-.476-.622l-.815-.47c.082.681.608 1.434 1.276 1.82.898.519 1.44.07 1.444-1.171a3.62 3.62 0 0 0-.334-1.556 2.718 2.718 0 0 0-1.1-1.244c-.763-.442-1.323-.202-1.325.592zm.809.438c0-.33.234-.456.526-.287.29.167.515.557.514.89 0 .33-.228.45-.52.28-.293-.17-.521-.55-.52-.883zm20.437 10.571l-.01 3.781.808.467.002-.875.147-.117.601 1.426.93.537-.93-2.172.885-.713-.9-.52-.717.673-.013-.008.005-2.012-.808-.467zm-12.347-7.131l-1.183 3.923.759.438 1.182-3.923-.758-.438zm-12.143-7.014l-.002.565.668.386c.244.14.44.412.47.652l-1.134-.655-.002.558 1.144.66c-.035.217-.247.263-.516.107l-.633-.366-.001.4 1.07 2.094.935.54-1.01-1.934.023.01c.485.22.842.05.876-.42l.645.372.001-.559-.674-.39a1.24 1.24 0 0 0-.241-.519v-.026l.917.53v-.54l-2.536-1.465zm21.444 14.758a2.515 2.515 0 0 0 1.26 2.21c.648.375 1.106.259 1.185-.285l-.729-.421c-.057.16-.227.181-.444.056a1.023 1.023 0 0 1-.488-.86v-.057l1.676.967v-.262a2.493 2.493 0 0 0-1.22-2.143c-.758-.438-1.237-.126-1.24.795zm1.252-.127a.957.957 0 0 1 .448.768l-.903-.522c.022-.284.207-.389.455-.246zm-4.2-1.576a2.516 2.516 0 0 0 1.258 2.21c.65.375 1.107.259 1.186-.286l-.73-.42c-.056.16-.226.18-.442.056a1.024 1.024 0 0 1-.489-.86v-.058l1.676.968v-.262a2.493 2.493 0 0 0-1.22-2.144c-.759-.438-1.237-.126-1.24.796zm1.25-.127a.956.956 0 0 1 .45.767l-.904-.521c.022-.285.207-.39.455-.246zm-2.395-1.977l-.32 1.833-.016-.009-.377-2.236-.773-.447-.384 1.797-.016-.01-.311-2.198-.815-.47.637 3.226.856.494.394-1.696.015.01.39 2.147.87.503.649-2.483-.799-.461z" fill="#FFF"/></g><g mask="url(#d)"><g transform="translate(137 149)" fill-rule="nonzero"><path fill-opacity=".16" fill="url(#z)" filter="url(#A)" d="M62.097 44.305l-60.779.49-1.037-7.739 59.171-2.873 5.444 4.113z"/><ellipse fill="url(#B)" cx="61.022" cy="29.702" rx="8.999" ry="5.514"/><path d="M52.09 29.971zm17.863.135v-.135.135z" fill="#E4E9F7"/><path d="M8.932 5.351C4.33 5.351.542 3.2 0 .442l1.692 10.222h.067c.474 2.151 3.451 3.832 7.105 3.832 3.992 0 7.172-2.017 7.172-4.438L17.728.644c-.541 2.69-4.263 4.707-8.796 4.707z" fill="url(#C)" transform="translate(52.09 29.865)"/><path d="M60.986 26.196c-4.073 0-7.358 2.024-7.358 4.505 0 .718.262 1.371.788 2.024 1.577 1.306 4.073 2.09 6.898 2.09 1.84 0 3.482-.327 4.927-.915 1.314-.783 2.103-1.958 2.103-3.199 0-2.48-3.285-4.505-7.358-4.505z" fill="#FFF"/><path d="M74.382 7.236c-.572-3.485-3.29-2.716-4.89-1.453-1.599 1.262-.704 4.412-1.796 5.386-1.091.975-3.31.619-4.608 3.21-1.299 2.59.425 3.238.071 4.61-.353 1.37-3.406.176-4.467 4.288-1.06 4.112 3.18 4.775 2.377 7.074a8.432 8.432 0 0 1-.235.591l.23.766.147-.277s.46-.947 1.883-.836c2.697-.106 4.61-1.267 5.742-3.483 1.698-3.325-.915-3.781-.066-5.443.848-1.662 2.077-.723 3.375-3.315 1.299-2.591-1.213-3.44-.162-5.885 1.05-2.446 2.97-1.749 2.399-5.233z" fill="url(#D)"/><path d="M60.78 31.76s.14.607.352 1.362l.59-.194a9.183 9.183 0 0 1-.491-2.288c-.225-2.687 4.507-2.239 4.507-6.941s-3.606-4.255-3.606-5.822c0-1.567 2.029-1.791 1.353-4.926-.676-3.135-3.156-3.359-4.057-4.702-.902-1.344.93-4.478-.437-6.27-1.366-1.79-4.07-3.358-5.648.224-1.578 3.583.676 3.359 1.127 6.27.45 2.91-2.48 3.135-1.803 6.27.676 3.134 2.253 2.462 2.704 4.478.45 2.015-2.479 1.79-1.578 5.821.601 2.687 2.334 4.456 5.198 5.306 1.556.269 1.789 1.412 1.789 1.412z" fill="url(#D)"/><path d="M60.554 31.312c.19.755.37 1.42.542 1.993l1-.289-.866-2.152c-.452-4.387-.978-8.343-1.577-11.867-.667-3.922-2.515-9.244-3.155-14.33.166 4.72 1.664 9.379 2.479 14.33.435 2.648.961 6.753 1.577 12.315z" fill="url(#E)"/></g></g></g></g></g></svg>