<svg width="50" height="50" viewBox="0 0 50 50" xmlns="http://www.w3.org/2000/svg" xmlns:xlink="http://www.w3.org/1999/xlink"><defs><linearGradient x1="50%" y1="95.75%" x2="78.198%" y2="-8.824%" id="a"><stop stop-color="#30E8C4" offset="0%"/><stop stop-color="#32E77A" offset="100%"/></linearGradient><path d="M15.936 34.359c-.39 0-.762-.252-.98-.689-.28-.558-.24-1.284.097-1.787l4.487-6.704-4.487-6.703c-.336-.503-.376-1.23-.097-1.787.279-.558.81-.814 1.304-.63l20.67 7.68c.498.186.84.773.84 1.44 0 .666-.342 1.253-.84 1.438l-20.67 7.68a.902.902 0 0 1-.324.062zm3.437-14.023l2.588 3.866c.376.562.376 1.392 0 1.955l-2.588 3.866 13.035-4.844-13.035-4.843z" id="c"/><filter x="-21.7%" y="-27.2%" width="160.9%" height="176.3%" filterUnits="objectBoundingBox" id="b"><feOffset dx="2" dy="2" in="SourceAlpha" result="shadowOffsetOuter1"/><feGaussianBlur stdDeviation="2" in="shadowOffsetOuter1" result="shadowBlurOuter1"/><feColorMatrix values="0 0 0 0 0 0 0 0 0 0 0 0 0 0 0 0 0 0 0.0954483696 0" in="shadowBlurOuter1"/></filter></defs><g fill="none"><circle fill="url(#a)" cx="25" cy="25" r="25"/><use fill="#000" filter="url(#b)" xlink:href="#c"/><use fill="#FFF" fill-rule="evenodd" xlink:href="#c"/></g></svg>