<svg width="134" height="175" viewBox="0 0 134 175" xmlns="http://www.w3.org/2000/svg" xmlns:xlink="http://www.w3.org/1999/xlink"><defs><path id="a" d="M0 0h200v200H0z"/><filter x="-1.5%" y="-2.5%" width="103.1%" height="104.9%" filterUnits="objectBoundingBox" id="c"><feGaussianBlur stdDeviation=".865" in="SourceGraphic"/></filter><linearGradient x1="19.288%" y1="-23.153%" x2="27.089%" y2="13.281%" id="d"><stop stop-color="#0091FF" offset="0%"/><stop stop-color="#064CB5" offset="100%"/></linearGradient><linearGradient x1="50%" y1="0%" x2="50%" y2="100%" id="f"><stop stop-color="#1D2C41" stop-opacity=".49" offset="0%"/><stop stop-color="#1D2541" stop-opacity=".308" offset="100%"/></linearGradient><path d="M15.85 79.338c-.701-.41-1.037-1.354-.747-2.115l24.733-63.676c.29-.761 1.113-1.05 1.815-.64l83.379 48.031c.701.411 1.037 1.355.747 2.116l-24.749 63.584c-.29.761-1.113 1.05-1.814.64L15.85 79.337z" id="e"/><linearGradient x1="47.27%" y1="58.732%" x2="55.985%" y2="33.22%" id="g"><stop stop-color="#2AB4FF" offset="0%"/><stop stop-color="#324DED" stop-opacity=".8" offset="100%"/></linearGradient><linearGradient x1="50%" y1="4.323%" x2="13.517%" y2="90.904%" id="h"><stop stop-color="#0041BF" stop-opacity=".1" offset="0%"/><stop stop-color="#00A8FF" stop-opacity=".978" offset="100%"/></linearGradient><linearGradient x1="12.249%" y1="26.598%" x2="101.149%" y2="19.269%" id="i"><stop stop-color="#FFF" offset="0%"/><stop stop-color="#E2F0FF" stop-opacity=".9" offset="34.669%"/><stop stop-color="#338BE6" stop-opacity=".767" offset="100%"/></linearGradient><linearGradient x1="39.012%" y1="15.809%" x2="18.184%" y2="84.168%" id="j"><stop stop-color="#0041BF" stop-opacity=".1" offset="0%"/><stop stop-color="#00A8FF" stop-opacity=".978" offset="100%"/></linearGradient><linearGradient x1="15.805%" y1="0%" x2="89.508%" y2="103.628%" id="l"><stop stop-color="#FFC600" offset="0%"/><stop stop-color="#FF4900" offset="100%"/></linearGradient><filter x="-.7%" y="-.6%" width="101.3%" height="101.2%" filterUnits="objectBoundingBox" id="k"><feGaussianBlur stdDeviation=".118" in="SourceGraphic"/></filter><linearGradient x1="50%" y1="0%" x2="50%" y2="100%" id="m"><stop stop-color="#FAD961" offset="0%"/><stop stop-color="#F76B1C" offset="100%"/></linearGradient><filter x="-.7%" y="-.6%" width="101.3%" height="101.2%" filterUnits="objectBoundingBox" id="n"><feGaussianBlur stdDeviation=".118" in="SourceGraphic"/></filter><filter x="-2.2%" y="-2.2%" width="104.3%" height="104.4%" filterUnits="objectBoundingBox" id="o"><feGaussianBlur stdDeviation=".616" in="SourceGraphic"/></filter><linearGradient x1="27.83%" y1="108.461%" x2="55.26%" y2="36.784%" id="p"><stop stop-color="#0041BF" stop-opacity=".1" offset="0%"/><stop stop-color="#00CFFF" stop-opacity=".9" offset="100%"/></linearGradient><linearGradient x1="-11.979%" y1="10.404%" x2="58.407%" y2="60.971%" id="q"><stop stop-color="#95BEFF" offset="0%"/><stop stop-color="#3C88EB" offset="100%"/></linearGradient><linearGradient x1="79.895%" y1="91.473%" x2="9.247%" y2="2.723%" id="r"><stop stop-color="#0062FF" offset="0%"/><stop stop-color="#B9D8FF" offset="96.48%"/></linearGradient><filter x="-2.8%" y="-3.6%" width="105.6%" height="107.2%" filterUnits="objectBoundingBox" id="s"><feGaussianBlur stdDeviation=".616" in="SourceGraphic"/></filter><linearGradient x1="21.461%" y1="9.012%" x2="50%" y2="74.593%" id="t"><stop stop-color="#9DE85F" offset="0%"/><stop stop-color="#63CC31" offset="100%"/></linearGradient></defs><g transform="translate(-16 -1)" fill="none" fill-rule="evenodd"><mask id="b" fill="#fff"><use xlink:href="#a"/></mask><g opacity=".7" mask="url(#b)"><path d="M1.645 149.799l97.868 55.903a7.064 7.064 0 0 0 7.68-.401l62.4-44.074L63.75 100.725 1.4 144.782c-1.763 1.289-1.641 3.937.244 5.017z" fill-opacity=".027" fill="#005496" fill-rule="nonzero" filter="url(#c)" transform="translate(16 1)"/><path d="M201.56 112.092c-1.676.522 0 0 0 0l19.217-49.614a3.075 3.075 0 0 0-1.344-3.798L120.256 1.575a3.053 3.053 0 0 0-2.967-.07l-.925 1.15 1.588 1.83-31.907 82.469c-.437 1.097.017 2.352 1.065 2.961l97.484 56.165.122 2.09 1.763-.557a3.136 3.136 0 0 0 2.077-1.882l3.788-9.825c8.657-22.368 9.18-23.744 9.216-23.814z" fill-opacity=".579" fill="#BBBCCB" fill-rule="nonzero"/><path d="M219.014 59.29L119.156 1.767a3.149 3.149 0 0 0-4.503 1.585L82.065 87.58a3.137 3.137 0 0 0 1.362 3.85l99.317 57.21a3.149 3.149 0 0 0 4.503-1.586l32.832-84.769c.437-1.115-.017-2.387-1.065-2.996z" fill="#1F2356" fill-rule="nonzero"/><path d="M7.96 81.076c-.804-.47-1.188-1.55-.856-2.422L35.415 5.766c.332-.87 1.275-1.202 2.078-.731l95.442 54.98c.803.47 1.187 1.55.855 2.42l-28.33 72.785c-.332.87-1.274 1.202-2.077.731L7.959 81.076z" fill="url(#d)" fill-rule="nonzero" transform="translate(81.786 1)"/><g opacity=".507" transform="translate(81.786 1)"><use fill="#004CB8" xlink:href="#e"/><use fill="url(#f)" xlink:href="#e"/></g><path d="M185.606 145.853l2.88-7.648L87.11 79.846l-3.212 7.91a1.722 1.722 0 0 0 .75 2.16l98.445 56.826c.942.54 2.13.122 2.513-.889z" fill="#0A0D23" fill-rule="nonzero"/><path d="M87.319 81.275l99.788 57.627-2.094 5.575a1.72 1.72 0 0 1-2.461.888L85.626 89.41a1.734 1.734 0 0 1-.733-2.125l2.426-6.01z" fill="#252B4F" fill-rule="nonzero"/><path d="M73.379 77.418l-.489 1.236c-.332.872.052 1.952.855 2.422l95.425 54.893c.803.47 1.745.139 2.077-.732l.593-1.516-98.46-56.303z" fill="url(#g)" fill-rule="nonzero" opacity=".5" transform="translate(16 1)"/><path d="M18.6 134.634l93.487 53.813a6.985 6.985 0 0 0 7.593-.4l64.838-46.967a3.173 3.173 0 0 0-.278-5.32L88.89 80.872a3.173 3.173 0 0 0-3.444.18l-67.09 48.618c-1.746 1.272-1.624 3.903.244 4.965z" fill="#FFF" fill-rule="nonzero"/><g opacity=".5"><path d="M.775 13.277c-1.087.792-1.024 1.981.146 2.67l25.664 14.767c1.17.668 3.01.584 4.118-.208l17.408-12.62c1.087-.792 1.024-1.981-.146-2.67L22.301.45c-1.17-.668-3.01-.584-4.117.208L.775 13.277z" fill="url(#h)" fill-rule="nonzero" opacity=".7" transform="translate(54.124 132.966)"/></g><path d="M103.524 55.868a6.985 6.985 0 0 1-7.593.4L2.444 2.457A2.915 2.915 0 0 1 .96.07a2.101 2.101 0 0 0 .227 3.484l95.634 55.05c2.775 1.358 4.852.19 5.69-.297l65.738-47.591a3.173 3.173 0 0 0 1.305-2.358l.114-1.698c-.084.52-.214.924-.39 1.214-.264.434-.753.863-1.053 1.08l-64.701 46.914z" fill="url(#i)" fill-rule="nonzero" transform="translate(16.156 132.178)" opacity=".4"/><g opacity=".5"><path d="M86.449 76.837c.862.502 2.208.43 3.017-.143l33.316-24.353c.808-.574.754-1.452-.09-1.936L37.189.682c-.862-.502-2.208-.43-3.017.143L.874 25.197c-.808.573-.754 1.451.09 1.935l85.485 49.705z" fill="url(#j)" fill-rule="nonzero" opacity=".7" transform="translate(53.101 87.862)"/></g><g fill-rule="nonzero"><g opacity=".3"><path d="M1.599 31.194C.779 30.706.098 29.539.098 28.58L.255 1.073c0-.958.68-1.341 1.518-.87l50.81 29.51c.821.488 1.502 1.655 1.502 2.613l-.157 27.507c0 .958-.68 1.342-1.519.871L1.6 31.194z" opacity=".51" filter="url(#k)" transform="translate(24.812 71.314)" fill="url(#l)" fill-opacity=".93"/></g><g opacity=".9"><path d="M1.64 31.235c-.82-.487-1.5-1.655-1.5-2.613L.297 1.115c0-.958.68-1.341 1.518-.871l50.81 29.51c.821.488 1.502 1.656 1.502 2.614l-.157 27.507c0 .958-.68 1.341-1.519.871l-50.81-29.51z" fill="url(#m)" opacity=".838" transform="translate(19 74.328)"/><path d="M33.607 104.52l-.558-.333-.278-1.618c-.047-.142-.047-.237-.093-.285l-.186-.19-.372-.19-.047 1.712-.604-.333.093-4.281 1.116.666c.279.19.511.428.65.713.14.286.233.666.186 1.047 0 .285-.046.523-.14.666-.092.142-.232.238-.371.238.14.142.232.38.325.713l.28 1.475zm-1.069-3.092c.14.095.279.095.326.047.093-.047.093-.19.093-.38s-.047-.333-.093-.476a1.1 1.1 0 0 0-.326-.333l-.511-.285v1.141l.511.286zm3.58 4.614l-.233-1.094-1.162-.714-.232.81-.558-.334 1.209-3.615.418.238 1.07 4.995-.512-.286zm-1.209-2.426l.79.476-.371-1.856-.419 1.38zm2.743 2.569l1.255.761v.761l-1.86-1.094v-.666l1.256-2.14-1.209-.714v-.761l1.813 1.094v.666zm3.952 3.092l-.558-.333-.279-1.617c-.046-.143-.046-.238-.093-.286-.046-.095-.14-.143-.186-.19l-.372-.19-.046 1.712-.558-.333.093-4.281 1.116.666c.278.19.511.428.65.713.14.286.233.666.186 1.047 0 .285-.046.523-.14.666-.092.143-.232.238-.371.238.14.142.232.38.325.713l.233 1.475zm-1.023-3.045c.14.096.279.096.326.048.092-.048.092-.19.092-.38s-.046-.334-.092-.476a1.1 1.1 0 0 0-.326-.333l-.511-.286v1.142l.511.285zm1.813 2.998a6.182 6.182 0 0 1-.232-1.76c0-.714.093-1.19.279-1.475.186-.286.418-.333.697-.143.279.19.511.523.697.951.14.476.233 1.047.233 1.76 0 .714-.093 1.237-.279 1.523-.186.285-.418.333-.697.142-.326-.19-.558-.523-.698-.999zm1.023.095c.047-.19.093-.571.093-1.095 0-.523 0-.903-.093-1.189-.046-.285-.14-.428-.279-.523-.14-.095-.232-.048-.325.19-.047.19-.093.523-.093 1.047 0 .523 0 .904.093 1.189.046.285.14.428.279.523.14.095.232.048.325-.142zm1.348 1.332a6.182 6.182 0 0 1-.232-1.76c0-.714.093-1.19.279-1.475.186-.286.418-.333.697-.143.28.19.512.523.698.951.139.476.232 1.047.232 1.76 0 .714-.093 1.237-.279 1.523-.186.285-.418.333-.697.143-.326-.19-.558-.524-.698-1zm1.023.047c.047-.19.093-.57.093-1.094 0-.523 0-.904-.093-1.19-.046-.285-.14-.427-.279-.523-.14-.095-.232-.047-.325.19-.047.191-.093.524-.093 1.047 0 .524 0 .904.093 1.19.046.285.14.428.279.523.14.143.232.095.325-.143zm1.348 1.332a6.182 6.182 0 0 1-.232-1.76c0-.714.093-1.19.279-1.475.186-.285.418-.333.697-.142.28.19.512.523.698.951.186.428.232 1.047.232 1.76 0 .714-.093 1.237-.279 1.522-.186.286-.418.333-.697.143-.326-.19-.558-.523-.698-.999zm1.023.095c.047-.19.093-.57.093-1.094 0-.523 0-.904-.093-1.19-.046-.285-.14-.427-.279-.522-.14-.096-.232-.048-.325.19-.047.19-.093.523-.093 1.046 0 .524 0 .904.093 1.19.046.285.14.428.279.523.14.095.232.048.325-.143zm1.348 1.332a6.182 6.182 0 0 1-.232-1.76c0-.713.093-1.19.279-1.475.186-.285.418-.333.697-.142.28.19.512.523.698.951.14.476.232 1.047.232 1.76 0 .714-.093 1.237-.279 1.523-.186.285-.418.333-.697.142-.326-.19-.512-.523-.698-.999zm1.023.095c.047-.19.093-.57.093-1.094 0-.523 0-.904-.093-1.189-.093-.285-.14-.428-.279-.523-.14-.095-.232-.048-.325.19s-.093.523-.093 1.047c0 .523 0 .903.093 1.189.046.285.14.428.279.523.14.095.232.048.325-.143zm1.348 1.332a6.182 6.182 0 0 1-.232-1.76c0-.713.093-1.189.279-1.474.186-.286.418-.333.697-.143.28.19.512.523.698.951.14.476.232 1.047.232 1.76 0 .714-.093 1.237-.279 1.523-.186.285-.418.333-.697.142-.28-.19-.512-.57-.698-.999zm1.023.048c.047-.19.093-.57.093-1.094 0-.523 0-.904-.093-1.19-.046-.285-.14-.428-.279-.523-.14-.095-.232-.047-.325.19-.047.19-.093.524-.093 1.047 0 .523 0 .904.093 1.19.046.285.14.428.279.523.14.142.232.047.325-.143zm1.349 1.332a6.182 6.182 0 0 1-.233-1.76c0-.714.093-1.19.279-1.475.186-.285.418-.333.697-.143.28.19.512.524.698.952.14.476.232 1.046.232 1.76s-.093 1.237-.279 1.522c-.186.286-.418.333-.697.143-.28-.19-.512-.523-.698-.999zm1.022.095c.047-.19.093-.57.093-1.094 0-.523 0-.904-.093-1.19-.046-.285-.14-.427-.279-.523-.14-.095-.232-.047-.325.19-.047.191-.093.524-.093 1.047 0 .524 0 .904.093 1.19.046.285.14.428.279.523.14.095.232.047.325-.143zm2.464 1.713l.558.333v.76l-1.627-.95v-.762l.558.333.046-2.473-.511.237v-.808l.744-.286.325.19zM26.401 90.391l.558.333v.761l-1.627-.951v-.761l.558.333v-2.521l-.512.237v-.808l.744-.286.326.19zm2.371 1.379l.558.334v.76l-1.627-.95v-.762l.558.333.046-2.473-.511.238v-.81l.744-.285.325.19zm2.371 1.428l.558.333v.761l-1.627-.951v-.762l.558.333.046-2.473-.511.238v-.81l.744-.284.325.19zm2.883 1.712v.762l-1.72-1v-.713l.836-1.047c.186-.237.28-.475.28-.713 0-.19 0-.333-.094-.428-.046-.143-.139-.19-.232-.286-.232-.142-.418-.095-.65.048l-.187-.761a.521.521 0 0 1 .372-.143c.14 0 .326.048.465.143.279.142.465.38.604.666.14.285.233.618.233.999 0 .238-.047.475-.093.618-.047.19-.186.333-.326.523l-.557.666 1.069.666zm2.371 1.38v.761l-1.72-.999v-.713l.837-1.047c.185-.238.278-.476.278-.714 0-.19 0-.333-.093-.428-.046-.142-.139-.19-.232-.285-.232-.143-.418-.095-.65.047l-.187-.76a.521.521 0 0 1 .372-.143.88.88 0 0 1 .465.142c.279.143.465.38.604.666.14.286.233.619.233 1 0 .237-.047.475-.093.618-.047.19-.186.333-.326.523l-.557.666 1.069.666zm2.371 1.427v.761l-1.72-.999v-.713l.837-1.047c.186-.238.279-.476.279-.713 0-.19 0-.333-.093-.429-.093-.095-.14-.19-.233-.285-.232-.143-.418-.095-.65.048L37 93.578a.521.521 0 0 1 .372-.142.88.88 0 0 1 .465.142c.279.143.465.381.604.666.14.286.233.619.233 1 0 .237-.047.475-.093.618-.047.19-.186.333-.325.523l-.558.666 1.069.666zm1.86 1.142l.557.333v.761l-1.627-.951v-.762l.558.333.047-2.473-.512.238v-.81l.744-.285.326.19zm2.696-1.475c.186.476.233 1.047.233 1.713 0 .475-.047.856-.14 1.141-.093.286-.232.476-.372.571-.14.095-.325.048-.558-.047-.14-.095-.279-.238-.465-.38a3.943 3.943 0 0 1-.372-.572l.186-.57c.186.38.419.665.605.76.186.096.279.048.372-.095.093-.19.14-.475.186-.903-.047.142-.14.19-.233.237-.093.048-.232 0-.325-.047a1.115 1.115 0 0 1-.372-.428 9.44 9.44 0 0 1-.28-.666 4.256 4.256 0 0 1-.092-.761c0-.286.046-.524.14-.666.092-.19.185-.286.325-.333.14-.048.279-.048.418.095.326.142.605.475.744.951zm-.465 1.094c.093-.095.093-.238.093-.428s-.046-.38-.093-.57c-.046-.19-.14-.286-.279-.334-.093-.047-.186-.047-.279.048a.968.968 0 0 0-.093.428c0 .19.047.38.093.57.047.144.14.286.28.334.139.047.232 0 .278-.048zm2.976 2.332c.093.237.14.475.14.76 0 .238-.047.429-.14.571a.539.539 0 0 1-.326.238c-.14.048-.325-.047-.511-.143a1.46 1.46 0 0 1-.512-.428c-.14-.19-.232-.38-.325-.618s-.093-.476-.093-.714.046-.475.14-.57c.092-.096.232-.19.371-.143-.14-.143-.232-.333-.325-.571-.093-.238-.093-.428-.093-.666 0-.238.046-.428.14-.57a.539.539 0 0 1 .325-.239c.14 0 .279.048.465.143.186.095.325.238.465.428s.232.38.325.618.093.429.093.666c0 .238-.046.429-.14.524-.092.142-.185.19-.325.19.14.095.233.285.326.523zm-.512.76c.093-.047.14-.142.14-.333 0-.19-.047-.333-.093-.475a2.608 2.608 0 0 0-.326-.428c-.14-.048-.232-.048-.325 0-.093.047-.14.19-.14.333 0 .19.047.333.093.475a1.1 1.1 0 0 0 .326.333c.14.095.232.143.325.095zm-.558-3.044c-.093.047-.093.143-.093.333 0 .19.047.333.093.476.047.142.14.285.28.38.139.048.232 0 .278-.047.093-.048.093-.19.093-.333 0-.19-.046-.333-.093-.476a.424.424 0 0 0-.279-.286c-.093-.095-.186-.095-.279-.047zm1.767.238l1.767 1.046v.714l-1.163 2.95-.604-.334 1.162-2.902-1.209-.713zm2.371 1.379l1.767 1.047v.713l-1.163 2.95-.604-.333 1.162-2.902-1.208-.714zm4.045 4.9c.093.238.14.476.14.761 0 .238-.047.428-.14.571a.539.539 0 0 1-.326.238 1.19 1.19 0 0 1-.511-.143 1.46 1.46 0 0 1-.512-.428c-.139-.19-.232-.38-.325-.618s-.093-.476-.093-.714.047-.476.14-.57c.093-.143.232-.191.371-.143-.139-.143-.232-.333-.325-.571-.093-.238-.093-.428-.093-.666 0-.238.047-.428.14-.524a.539.539 0 0 1 .325-.237c.14 0 .279.047.465.142.186.095.325.238.465.428s.232.381.325.619.093.428.093.666c0 .238-.046.428-.14.523-.092.143-.185.19-.325.19.14.048.28.238.326.476zm-.512.714c.093-.048.14-.143.14-.333 0-.19-.047-.333-.093-.476a2.608 2.608 0 0 0-.326-.428c-.14-.048-.232-.048-.325.047-.093.048-.14.19-.14.333 0 .19.047.333.093.476a1.1 1.1 0 0 0 .326.333c.14.095.279.095.325.048zm-.558-2.997c-.093.047-.093.142-.093.333 0 .19.047.333.093.475a.74.74 0 0 0 .28.381c.139.048.232 0 .278-.048.093-.047.093-.19.093-.333 0-.19-.046-.333-.093-.475a.424.424 0 0 0-.279-.286c-.093-.095-.186-.095-.279-.047zm3.348 1.665c.186.475.232 1.046.232 1.712 0 .476-.046.857-.14 1.142-.092.285-.232.476-.371.57-.14.096-.326.048-.558-.047-.14-.095-.279-.238-.465-.38-.14-.19-.279-.38-.372-.571l.186-.571c.186.38.419.666.604.761.186.095.28.048.372-.095.093-.19.14-.476.186-.904-.046.143-.14.19-.232.238-.093.048-.233 0-.326-.048a1.115 1.115 0 0 1-.371-.428c-.093-.19-.186-.428-.28-.666a4.256 4.256 0 0 1-.092-.76c0-.286.046-.524.14-.667.092-.19.185-.285.325-.333.139-.047.278-.047.418.095.325.143.558.476.744.952zm-.465 1.094c.093-.095.093-.238.093-.428s-.047-.38-.093-.571c-.047-.19-.14-.286-.279-.333-.093-.048-.186-.048-.279.047a.968.968 0 0 0-.093.429c0 .19.047.38.093.57.046.143.14.286.279.333.093.048.186 0 .279-.047zm2.882 2.283c.093.238.093.476.093.714 0 .38-.093.618-.279.761-.186.095-.418.095-.697-.095-.186-.095-.325-.238-.511-.428-.14-.19-.28-.38-.372-.571l.186-.571c.232.428.418.666.65.809.14.095.28.095.326.047.046-.047.093-.19.093-.38s-.047-.333-.093-.476c-.047-.143-.186-.238-.325-.333l-.372-.19v-.714l.279.19c.139.096.232.096.325.048s.093-.143.093-.333c0-.19-.047-.333-.093-.476a.424.424 0 0 0-.279-.285.847.847 0 0 0-.325-.095.847.847 0 0 0-.326.095l-.186-.761a.521.521 0 0 1 .372-.143c.14 0 .326.048.465.143a.923.923 0 0 1 .418.428c.093.19.233.38.28.57.046.191.092.429.092.667 0 .238-.046.428-.093.523-.093.143-.186.19-.279.19.372.286.465.476.558.666zm2.604 1.903v.714l-.326-.19v.76l-.511-.332v-.762l-1.023-.618v-.714l1.209-2.14.418.238-.046 2.759.279.285zm-1.441-.856l.558.333.046-1.332-.604.999zm3.394.904c.139.19.185.38.278.666.047.238.093.523.093.76 0 .286-.046.524-.139.714-.093.19-.186.286-.325.286-.14.047-.326 0-.512-.143a1.905 1.905 0 0 1-.465-.428c-.14-.19-.279-.38-.372-.57l.186-.572c.233.428.419.666.651.809.28.19.419.048.465-.428 0-.19-.046-.38-.093-.571a.875.875 0 0 0-.325-.38c-.093-.048-.186-.048-.233-.048-.093 0-.14.047-.232.095l-.326-.19.047-2.522 1.58.952v.713l-1.069-.618v.951c.093-.047.233-.047.419.048.139.143.279.285.371.476zm2.696 3.472v.762l-1.72-1v-.713l.837-1.047c.186-.237.279-.475.279-.713 0-.19 0-.333-.093-.428-.047-.143-.14-.19-.233-.286-.232-.142-.418-.095-.65.048l-.187-.761a.521.521 0 0 1 .372-.143c.14 0 .326.048.465.143.28.142.465.38.605.666.139.285.232.618.232.999 0 .238-.046.475-.093.618-.046.19-.186.333-.325.523l-.558.666 1.069.666z" fill="#FFF"/></g></g><g fill-rule="nonzero"><g opacity=".3"><path d="M1.581 31.316c-.82-.488-1.5-1.655-1.5-2.614L.236 1.195c0-.958.681-1.341 1.519-.87l50.81 29.51c.82.488 1.501 1.655 1.501 2.613l-.157 27.507c0 .958-.68 1.342-1.518.871l-50.81-29.51z" opacity=".426" filter="url(#n)" transform="translate(76.252 151.289)" fill="url(#l)" fill-opacity=".93"/></g><g opacity=".9"><path d="M1.623 31.357c-.82-.488-1.5-1.655-1.5-2.613L.278 1.237C.28.279.96-.105 1.798.366l50.81 29.51c.82.488 1.501 1.655 1.501 2.614l-.157 27.507c0 .958-.68 1.341-1.518.87l-50.81-29.51z" fill="url(#m)" opacity=".844" transform="translate(70.44 154.302)"/><path d="M77.954 170.254l.585.35v.801l-1.708-1v-.8l.586.35v-2.652l-.537.25v-.85l.78-.3.342.2zm2.489 1.451l.586.35v.8l-1.708-1v-.8l.585.35.05-2.601-.538.25v-.85l.781-.3.342.2zm2.49 1.501l.586.35v.8l-1.709-1v-.8l.586.35.049-2.602-.537.25v-.85l.78-.3.343.2zm3.027 1.801v.8l-1.807-1.05v-.75l.879-1.101c.195-.25.293-.5.293-.75 0-.2 0-.35-.098-.45-.049-.15-.146-.2-.244-.3-.244-.151-.44-.101-.683.05l-.196-.801a.55.55 0 0 1 .391-.15c.146 0 .342.05.488.15.293.15.488.4.635.7.146.3.244.65.244 1.05 0 .25-.049.501-.098.651-.049.2-.195.35-.342.55l-.585.7 1.122.701zm2.49 1.451v.8l-1.807-1.05v-.75l.879-1.101c.195-.25.292-.5.292-.75 0-.2 0-.35-.097-.45-.049-.151-.147-.201-.244-.301-.244-.15-.44-.1-.684.05l-.195-.8c.098-.1.244-.15.39-.15.147 0 .342.05.489.15.293.15.488.4.634.7.147.3.244.65.244 1.05 0 .25-.048.5-.097.65-.049.201-.195.351-.342.551l-.586.7 1.123.701zm2.489 1.501v.8l-1.807-1.05v-.75l.88-1.101c.194-.25.292-.5.292-.75 0-.2 0-.351-.098-.451-.097-.1-.146-.2-.244-.3-.244-.15-.439-.1-.683.05l-.195-.8c.097-.1.244-.15.39-.15.147 0 .342.05.488.15.293.15.489.4.635.7.146.3.244.65.244 1.05 0 .25-.049.5-.098.65-.048.2-.195.35-.341.551l-.586.7 1.123.7zm1.952 1.201l.586.35v.8l-1.708-1v-.8l.585.35.05-2.602-.538.25v-.85l.781-.3.342.2z" fill="#FFF"/></g></g><path d="M7.9 44.719c-.523-.296-.785-1.01-.558-1.585L23.872.627c.226-.575.837-.784 1.36-.47l67.201 39.057c.524.296.786 1.01.559 1.585l-16.53 42.455c-.227.574-.838.783-1.361.47L7.9 44.719z" fill-opacity=".273" fill="#043052" fill-rule="nonzero" filter="url(#o)" transform="translate(107.27 24.626)"/><path d="M7.047 60.455a.496.496 0 0 1-.206-.584l6.837-17.603a.34.34 0 0 1 .502-.177l23.05 13.278a.496.496 0 0 1 .206.585L30.595 73.53a.339.339 0 0 1-.502.177L7.047 60.455z" fill="url(#p)" fill-rule="nonzero" opacity=".525" transform="translate(107.27 24.626)"/><path d="M107.985 72.216c-.523-.296-.785-1.01-.558-1.585l16.53-42.507c.226-.575.837-.784 1.36-.47l62.806 36.5c.524.295.786 1.01.559 1.585l-16.53 42.454c-.227.575-.837.784-1.361.47l-62.806-36.447z" fill="#FFF" fill-rule="nonzero"/><path d="M16.076 18.162l13.367.213a.8.8 0 0 1 .784.73l1.263 14.501a.8.8 0 0 1-.82.87l-13.186-.371a.8.8 0 0 1-.773-.72l-1.444-14.343a.8.8 0 0 1 .809-.88z" fill="url(#q)" opacity=".54" transform="rotate(29 29.41 246.014)"/><path d="M80.866 39.533L18.048 3.011c-.524-.297-1.134-.088-1.361.47l-1.362 3.502 64.738 37.585 1.344-3.467c.227-.557-.017-1.271-.541-1.568z" fill="url(#r)" fill-rule="nonzero" opacity=".093" transform="translate(107.27 24.626)"/><g fill-rule="nonzero"><path d="M125.964 30.18c.192.261.14.697-.123.975-.261.279-.628.314-.82.053-.192-.262-.14-.697.122-.976s.629-.314.82-.052z" fill="#EA323F"/><path d="M127.535 31.086c.192.26.14.696-.123.975-.261.279-.628.314-.82.052-.192-.26-.14-.696.122-.975s.611-.314.82-.052z" fill="#FFCC29"/><path d="M129.088 31.991c.192.262.14.697-.122.976s-.629.314-.82.052c-.193-.261-.14-.697.122-.975.261-.279.628-.314.82-.053z" fill="#5FEA26"/></g><path d="M66.577 84.735l6.196-16.393c.192-.47-.017-1.062-.47-1.324l-57.584-33.5c-.436-.26-.942-.07-1.134.401l-6.18 16.445 59.172 34.371z" fill-opacity=".249" fill="#043052" fill-rule="nonzero" opacity=".235" filter="url(#s)" transform="translate(107.27 24.626)"/><path d="M2.736 7.38c-.594-.342-.891-1.084-.683-1.647.208-.564.877-.742 1.471-.4L24.11 17.228c.594.342.891 1.083.683 1.647-.223.564-.877.742-1.471.4L2.736 7.38zm2.052-4.908c-.589-.351-.873-1.098-.655-1.658.218-.56.89-.726 1.478-.375l16.125 9.584c.589.352.873 1.098.655 1.658-.233.56-.89.727-1.478.375L4.788 2.472zM.75 12.138c-.595-.341-.892-1.083-.684-1.647.208-.563.877-.741 1.472-.4l16.29 9.301c.594.341.891 1.083.683 1.647-.223.563-.877.741-1.471.4L.75 12.138z" transform="translate(140.151 51.892)" fill="url(#q)" fill-rule="nonzero" opacity=".54"/><path d="M66.607 68.234l-57.6-33.5c-.437-.262-.943-.07-1.135.4l-6.86 18.257c-.192.47.018 1.063.472 1.324l57.583 33.448c.436.261.942.07 1.134-.4l6.877-18.205c.175-.47-.035-1.063-.471-1.324z" fill="url(#t)" fill-rule="nonzero" transform="translate(107.27 24.626)"/><path d="M123.328 73l.733.435-1.606 3.937-.576-.33-.768-3.554-1.012 2.508-.733-.435 1.606-3.937.576.33.768 3.537zm.157 4.965l1.606-3.937 2.461 1.446-.28.662-1.692-.993-.384.923 1.588.923-.28.68-1.588-.924-.401.993 1.693.993-.28.662zm9.391.592l.75.436-2.862 3.187-.629-.365.227-3.084-1.902 2.108-.629-.366.332-4.668.803.47-.28 3.205 1.973-2.212.541.313-.28 3.258zm4.328 7.403l.018-1.08-1.676-.975-.698.68-.785-.453 3.246-2.98.629.367.034 4.895-.768-.453zm-1.117-2.543l1.152.68.018-1.812-1.17 1.132zm3.212 3.519a2.115 2.115 0 0 1-.332-1.062 2.886 2.886 0 0 1 .21-1.185c.157-.4.384-.714.646-.94.261-.227.576-.332.907-.35.332 0 .681.088 1.048.297.244.14.453.314.628.523.174.209.314.418.401.644l-.506.47a2.362 2.362 0 0 0-.349-.557 1.439 1.439 0 0 0-.436-.366c-.314-.191-.611-.226-.873-.087-.262.122-.489.4-.663.836-.175.436-.227.82-.14 1.15.07.331.28.575.594.767.174.104.331.156.523.191s.367.018.594-.017v.766c-.192.07-.42.07-.664.018a2.531 2.531 0 0 1-.733-.279 2.57 2.57 0 0 1-.855-.819zm3.665 2.144a2.115 2.115 0 0 1-.331-1.064 2.886 2.886 0 0 1 .21-1.184c.156-.4.383-.714.645-.94.262-.227.576-.332.908-.35.331-.017.68.088 1.047.297.244.14.454.313.628.522.175.21.315.419.402.645l-.506.47a2.362 2.362 0 0 0-.35-.557 1.439 1.439 0 0 0-.436-.366c-.314-.192-.61-.226-.873-.087-.261.122-.488.4-.663.836-.174.436-.227.819-.14 1.15.088.33.28.575.594.766.175.105.332.157.524.192.174.035.366.018.593-.017v.766c-.192.07-.419.07-.663.018a2.531 2.531 0 0 1-.733-.28 2.419 2.419 0 0 1-.856-.818zm3.649 2.124a2.166 2.166 0 0 1-.315-1.062 2.767 2.767 0 0 1 .227-1.202c.175-.418.384-.732.646-.941.262-.226.559-.331.89-.348.332-.018.664.087 1.03.296.367.209.628.47.82.784.192.313.297.662.315 1.045.017.383-.053.784-.227 1.185-.175.4-.384.731-.646.94a1.333 1.333 0 0 1-.89.349c-.332.017-.664-.087-1.03-.296a1.897 1.897 0 0 1-.82-.75zm1.937.175c.262-.14.489-.418.663-.854.175-.436.227-.819.157-1.15a1.108 1.108 0 0 0-.558-.749c-.297-.174-.576-.191-.838-.07-.262.122-.489.419-.663.854-.175.436-.227.819-.157 1.15.07.33.261.575.558.749.297.192.576.209.838.07z" fill="#FFF" fill-rule="nonzero"/></g></g></svg>