<svg width="50" height="50" viewBox="0 0 50 50" xmlns="http://www.w3.org/2000/svg"><defs><linearGradient x1="21.217%" y1="94.944%" x2="77.25%" y2="0%" id="a"><stop stop-color="#6AC7FF" offset="0%"/><stop stop-color="#2C96FF" offset="98.184%"/></linearGradient><filter x="-15.6%" y="-29.4%" width="143.8%" height="182.4%" filterUnits="objectBoundingBox" id="b"><feOffset dx="2" dy="2" in="SourceAlpha" result="shadowOffsetOuter1"/><feGaussianBlur stdDeviation="2" in="shadowOffsetOuter1" result="shadowBlurOuter1"/><feColorMatrix values="0 0 0 0 0 0 0 0 0 0 0 0 0 0 0 0 0 0 0.0727185236 0" in="shadowBlurOuter1" result="shadowMatrixOuter1"/><feMerge><feMergeNode in="shadowMatrixOuter1"/><feMergeNode in="SourceGraphic"/></feMerge></filter></defs><g fill="none"><circle fill="url(#a)" cx="25" cy="25" r="25"/><g filter="url(#b)" transform="translate(9.159 16.667)" fill="#FFF"><path d="M8.308 16.124c-4.268 0-7.741-3.473-7.741-7.742C.567 4.114 4.04.641 8.308.641c1.848 0 3.963 1.2 6.286 3.567a29.566 29.566 0 0 1 2.781 3.302l.615.872-.615.872a29.7 29.7 0 0 1-2.781 3.302c-2.323 2.368-4.438 3.568-6.286 3.568zm0-12.457a4.721 4.721 0 0 0-4.715 4.715c0 2.6 2.115 4.716 4.715 4.716 1.606 0 4.22-2.528 5.942-4.716-1.722-2.187-4.336-4.715-5.942-4.715z"/><path d="M23.95 16.124c-1.848 0-3.962-1.2-6.285-3.568a28.909 28.909 0 0 1-1.531-1.696c-.75-.897-.755-4.05-.013-4.94.431-.518.956-1.113 1.544-1.712C19.986 1.841 22.102.641 23.95.641c4.269 0 7.742 3.473 7.742 7.741 0 4.269-3.473 7.742-7.742 7.742zm-5.943-7.742C19.73 10.57 22.345 13.1 23.95 13.1c2.6 0 4.716-2.116 4.716-4.716S26.55 3.668 23.95 3.668c-1.61-.001-4.224 2.527-5.943 4.714z"/></g></g></svg>